<svg xmlns="http://www.w3.org/2000/svg" width="720" height="720" viewBox="0 0 720 720"><defs><linearGradient id="pb" x1="0" y1="0" x2="1" y2="1"><stop offset="0" stop-color="#8a3fd1"/><stop offset="1" stop-color="#2f7be8"/></linearGradient><linearGradient id="cr" x1="0" y1="0" x2="1" y2="1"><stop offset="0" stop-color="#ff6a3d"/><stop offset="1" stop-color="#e8323c"/></linearGradient><linearGradient id="pp" x1="0" y1="0" x2="1" y2="1"><stop offset="0" stop-color="#c04fd8"/><stop offset="1" stop-color="#6c3bc9"/></linearGradient><linearGradient id="lf" x1="0" y1="0" x2="1" y2="1"><stop offset="0" stop-color="#3fb36b"/><stop offset="1" stop-color="#1d6b4a"/></linearGradient><linearGradient id="bl" x1="0" y1="0" x2="1" y2="1"><stop offset="0" stop-color="#3d8bff"/><stop offset="1" stop-color="#2350c8"/></linearGradient><linearGradient id="pk" x1="0" y1="0" x2="1" y2="1"><stop offset="0" stop-color="#ff9ec9"/><stop offset="1" stop-color="#f0559c"/></linearGradient><filter id="grain"><feTurbulence type="fractalNoise" baseFrequency=".9" numOctaves="2" stitchTiles="stitch"/><feColorMatrix values="0 0 0 0 0  0 0 0 0 0  0 0 0 0 0  0 0 0 .3 0"/></filter></defs><rect width="720" height="720" fill="#ff86c4"/><g transform="translate(233.2 108.6) rotate(234.3)"><path d="M0 0 C 29.8 -27.2 68.1 -15.3 85.1 0 C 68.1 15.3 29.8 27.2 0 0Z" fill="url(#bl)"/><path d="M6.8 0 L76.6 0" stroke="#bff0c9" stroke-width="2" opacity=".55"/></g><g transform="translate(67.8 419.6) rotate(327.5)"><path d="M0 0 C 33.3 -30.4 76.0 -17.1 95.0 0 C 76.0 17.1 33.3 30.4 0 0Z" fill="url(#lf)"/><path d="M7.6 0 L85.5 0" stroke="#bff0c9" stroke-width="2" opacity=".55"/></g><g transform="translate(787.8 419.6) rotate(327.5)"><path d="M0 0 C 33.3 -30.4 76.0 -17.1 95.0 0 C 76.0 17.1 33.3 30.4 0 0Z" fill="url(#lf)"/><path d="M7.6 0 L85.5 0" stroke="#bff0c9" stroke-width="2" opacity=".55"/></g><g transform="translate(312.2 50.3) rotate(32.7)"><path d="M0 0 C 38.4 -35.1 87.8 -19.7 109.7 0 C 87.8 19.7 38.4 35.1 0 0Z" fill="url(#bl)"/><path d="M8.8 0 L98.7 0" stroke="#bff0c9" stroke-width="2" opacity=".55"/></g><g transform="translate(312.2 770.3) rotate(32.7)"><path d="M0 0 C 38.4 -35.1 87.8 -19.7 109.7 0 C 87.8 19.7 38.4 35.1 0 0Z" fill="url(#bl)"/><path d="M8.8 0 L98.7 0" stroke="#bff0c9" stroke-width="2" opacity=".55"/></g><g transform="translate(89.1 160.7) rotate(225.9)"><path d="M0 0 C 51.2 -46.8 117.1 -26.3 146.3 0 C 117.1 26.3 51.2 46.8 0 0Z" fill="url(#bl)"/><path d="M11.7 0 L131.7 0" stroke="#bff0c9" stroke-width="2" opacity=".55"/></g><g transform="translate(809.1 160.7) rotate(225.9)"><path d="M0 0 C 51.2 -46.8 117.1 -26.3 146.3 0 C 117.1 26.3 51.2 46.8 0 0Z" fill="url(#bl)"/><path d="M11.7 0 L131.7 0" stroke="#bff0c9" stroke-width="2" opacity=".55"/></g><g transform="translate(421.6 35.7) rotate(79.6)"><path d="M0 0 C 41.6 -38.1 95.2 -21.4 119.0 0 C 95.2 21.4 41.6 38.1 0 0Z" fill="url(#lf)"/><path d="M9.5 0 L107.1 0" stroke="#bff0c9" stroke-width="2" opacity=".55"/></g><g transform="translate(421.6 755.7) rotate(79.6)"><path d="M0 0 C 41.6 -38.1 95.2 -21.4 119.0 0 C 95.2 21.4 41.6 38.1 0 0Z" fill="url(#lf)"/><path d="M9.5 0 L107.1 0" stroke="#bff0c9" stroke-width="2" opacity=".55"/></g><g transform="translate(208.5 103.9) rotate(42.4)"><path d="M0 0 C 35.6 -32.5 81.3 -18.3 101.6 0 C 81.3 18.3 35.6 32.5 0 0Z" fill="url(#bl)"/><path d="M8.1 0 L91.4 0" stroke="#bff0c9" stroke-width="2" opacity=".55"/></g><g transform="translate(130.1 418.8) rotate(230.0)"><path d="M0 0 C 37.1 -33.9 84.9 -19.1 106.1 0 C 84.9 19.1 37.1 33.9 0 0Z" fill="url(#bl)"/><path d="M8.5 0 L95.5 0" stroke="#bff0c9" stroke-width="2" opacity=".55"/></g><g transform="translate(512.7 406.3) rotate(222.8)"><path d="M0 0 C 40.2 -36.7 91.8 -20.7 114.7 0 C 91.8 20.7 40.2 36.7 0 0Z" fill="url(#bl)"/><path d="M9.2 0 L103.3 0" stroke="#bff0c9" stroke-width="2" opacity=".55"/></g><g transform="translate(307.9 226.2) rotate(210.8)"><path d="M0 0 C 39.1 -35.8 89.4 -20.1 111.7 0 C 89.4 20.1 39.1 35.8 0 0Z" fill="url(#lf)"/><path d="M8.9 0 L100.6 0" stroke="#bff0c9" stroke-width="2" opacity=".55"/></g><g transform="translate(178.9 129.4) rotate(280.7)"><path d="M0 0 C 30.0 -27.4 68.6 -15.4 85.7 0 C 68.6 15.4 30.0 27.4 0 0Z" fill="url(#lf)"/><path d="M6.9 0 L77.2 0" stroke="#bff0c9" stroke-width="2" opacity=".55"/></g><g transform="translate(378.1 -89.9) rotate(262.6)"><path d="M0 0 C 35.1 -32.0 80.1 -18.0 100.2 0 C 80.1 18.0 35.1 32.0 0 0Z" fill="url(#lf)"/><path d="M8.0 0 L90.1 0" stroke="#bff0c9" stroke-width="2" opacity=".55"/></g><g transform="translate(378.1 630.1) rotate(262.6)"><path d="M0 0 C 35.1 -32.0 80.1 -18.0 100.2 0 C 80.1 18.0 35.1 32.0 0 0Z" fill="url(#lf)"/><path d="M8.0 0 L90.1 0" stroke="#bff0c9" stroke-width="2" opacity=".55"/></g><g transform="translate(85.0 301.0) rotate(272.6)"><path d="M0 0 C 31.7 -29.0 72.5 -16.3 90.6 0 C 72.5 16.3 31.7 29.0 0 0Z" fill="url(#lf)"/><path d="M7.3 0 L81.6 0" stroke="#bff0c9" stroke-width="2" opacity=".55"/></g><g transform="translate(805.0 301.0) rotate(272.6)"><path d="M0 0 C 31.7 -29.0 72.5 -16.3 90.6 0 C 72.5 16.3 31.7 29.0 0 0Z" fill="url(#lf)"/><path d="M7.3 0 L81.6 0" stroke="#bff0c9" stroke-width="2" opacity=".55"/></g><g transform="translate(303.6 -27.3) rotate(27.9)"><path d="M0 0 C 41.7 -38.1 95.3 -21.4 119.1 0 C 95.3 21.4 41.7 38.1 0 0Z" fill="url(#lf)"/><path d="M9.5 0 L107.2 0" stroke="#bff0c9" stroke-width="2" opacity=".55"/></g><g transform="translate(303.6 692.7) rotate(27.9)"><path d="M0 0 C 41.7 -38.1 95.3 -21.4 119.1 0 C 95.3 21.4 41.7 38.1 0 0Z" fill="url(#lf)"/><path d="M9.5 0 L107.2 0" stroke="#bff0c9" stroke-width="2" opacity=".55"/></g><g transform="translate(244.9 252.1) rotate(178.8)"><path d="M0 0 C 47.5 -43.5 108.6 -24.4 135.8 0 C 108.6 24.4 47.5 43.5 0 0Z" fill="url(#lf)"/><path d="M10.9 0 L122.2 0" stroke="#bff0c9" stroke-width="2" opacity=".55"/></g><g transform="translate(-115.2 -39.8) rotate(170.7)"><path d="M0 0 C 44.3 -40.5 101.2 -22.8 126.5 0 C 101.2 22.8 44.3 40.5 0 0Z" fill="url(#lf)"/><path d="M10.1 0 L113.8 0" stroke="#bff0c9" stroke-width="2" opacity=".55"/></g><g transform="translate(-115.2 680.2) rotate(170.7)"><path d="M0 0 C 44.3 -40.5 101.2 -22.8 126.5 0 C 101.2 22.8 44.3 40.5 0 0Z" fill="url(#lf)"/><path d="M10.1 0 L113.8 0" stroke="#bff0c9" stroke-width="2" opacity=".55"/></g><g transform="translate(604.8 -39.8) rotate(170.7)"><path d="M0 0 C 44.3 -40.5 101.2 -22.8 126.5 0 C 101.2 22.8 44.3 40.5 0 0Z" fill="url(#lf)"/><path d="M10.1 0 L113.8 0" stroke="#bff0c9" stroke-width="2" opacity=".55"/></g><g transform="translate(604.8 680.2) rotate(170.7)"><path d="M0 0 C 44.3 -40.5 101.2 -22.8 126.5 0 C 101.2 22.8 44.3 40.5 0 0Z" fill="url(#lf)"/><path d="M10.1 0 L113.8 0" stroke="#bff0c9" stroke-width="2" opacity=".55"/></g><g transform="translate(526.4 222.9) rotate(208.1)"><path d="M0 0 C 44.7 -40.9 102.1 -23.0 127.7 0 C 102.1 23.0 44.7 40.9 0 0Z" fill="url(#lf)"/><path d="M10.2 0 L114.9 0" stroke="#bff0c9" stroke-width="2" opacity=".55"/></g><g transform="translate(204.9 277.8) rotate(240.7)"><path d="M0 0 C 28.6 -26.1 65.3 -14.7 81.6 0 C 65.3 14.7 28.6 26.1 0 0Z" fill="url(#lf)"/><path d="M6.5 0 L73.4 0" stroke="#bff0c9" stroke-width="2" opacity=".55"/></g><g transform="translate(255.9 439.9) rotate(177.7)"><path d="M0 0 C 33.3 -30.5 76.2 -17.1 95.3 0 C 76.2 17.1 33.3 30.5 0 0Z" fill="url(#lf)"/><path d="M7.6 0 L85.7 0" stroke="#bff0c9" stroke-width="2" opacity=".55"/></g><g transform="translate(93.1 178.3) rotate(140.7)"><path d="M0 0 C 49.3 -45.1 112.8 -25.4 141.0 0 C 112.8 25.4 49.3 45.1 0 0Z" fill="url(#lf)"/><path d="M11.3 0 L126.9 0" stroke="#bff0c9" stroke-width="2" opacity=".55"/></g><g transform="translate(813.1 178.3) rotate(140.7)"><path d="M0 0 C 49.3 -45.1 112.8 -25.4 141.0 0 C 112.8 25.4 49.3 45.1 0 0Z" fill="url(#lf)"/><path d="M11.3 0 L126.9 0" stroke="#bff0c9" stroke-width="2" opacity=".55"/></g><g transform="translate(119.8 289.2) rotate(100.0)"><path d="M0 0 C 31.4 -28.7 71.7 -16.1 89.6 0 C 71.7 16.1 31.4 28.7 0 0Z" fill="url(#lf)"/><path d="M7.2 0 L80.6 0" stroke="#bff0c9" stroke-width="2" opacity=".55"/></g><g transform="translate(-97.9 200.5) rotate(149.5)"><path d="M0 0 C 36.8 -33.6 84.1 -18.9 105.1 0 C 84.1 18.9 36.8 33.6 0 0Z" fill="url(#lf)"/><path d="M8.4 0 L94.6 0" stroke="#bff0c9" stroke-width="2" opacity=".55"/></g><g transform="translate(622.1 200.5) rotate(149.5)"><path d="M0 0 C 36.8 -33.6 84.1 -18.9 105.1 0 C 84.1 18.9 36.8 33.6 0 0Z" fill="url(#lf)"/><path d="M8.4 0 L94.6 0" stroke="#bff0c9" stroke-width="2" opacity=".55"/></g><g transform="translate(-30.4 108.7) rotate(63.4)"><path d="M0 0 C 33.7 -30.8 77.0 -17.3 96.2 0 C 77.0 17.3 33.7 30.8 0 0Z" fill="url(#lf)"/><path d="M7.7 0 L86.6 0" stroke="#bff0c9" stroke-width="2" opacity=".55"/></g><g transform="translate(689.6 108.7) rotate(63.4)"><path d="M0 0 C 33.7 -30.8 77.0 -17.3 96.2 0 C 77.0 17.3 33.7 30.8 0 0Z" fill="url(#lf)"/><path d="M7.7 0 L86.6 0" stroke="#bff0c9" stroke-width="2" opacity=".55"/></g><g transform="translate(8.7 598.4) rotate(65.6)"><path d="M0 0 C 34.9 -31.9 79.8 -18.0 99.7 0 C 79.8 18.0 34.9 31.9 0 0Z" fill="url(#lf)"/><path d="M8.0 0 L89.8 0" stroke="#bff0c9" stroke-width="2" opacity=".55"/></g><g transform="translate(728.7 598.4) rotate(65.6)"><path d="M0 0 C 34.9 -31.9 79.8 -18.0 99.7 0 C 79.8 18.0 34.9 31.9 0 0Z" fill="url(#lf)"/><path d="M8.0 0 L89.8 0" stroke="#bff0c9" stroke-width="2" opacity=".55"/></g><g transform="translate(301.6 265.9) rotate(203.9)"><path d="M0 0 C 51.4 -46.9 117.4 -26.4 146.7 0 C 117.4 26.4 51.4 46.9 0 0Z" fill="url(#bl)"/><path d="M11.7 0 L132.0 0" stroke="#bff0c9" stroke-width="2" opacity=".55"/></g><g transform="translate(-101.4 -35.8) rotate(235.8)"><path d="M0 0 C 46.1 -42.2 105.4 -23.7 131.8 0 C 105.4 23.7 46.1 42.2 0 0Z" fill="url(#lf)"/><path d="M10.5 0 L118.6 0" stroke="#bff0c9" stroke-width="2" opacity=".55"/></g><g transform="translate(-101.4 684.2) rotate(235.8)"><path d="M0 0 C 46.1 -42.2 105.4 -23.7 131.8 0 C 105.4 23.7 46.1 42.2 0 0Z" fill="url(#lf)"/><path d="M10.5 0 L118.6 0" stroke="#bff0c9" stroke-width="2" opacity=".55"/></g><g transform="translate(618.6 -35.8) rotate(235.8)"><path d="M0 0 C 46.1 -42.2 105.4 -23.7 131.8 0 C 105.4 23.7 46.1 42.2 0 0Z" fill="url(#lf)"/><path d="M10.5 0 L118.6 0" stroke="#bff0c9" stroke-width="2" opacity=".55"/></g><g transform="translate(618.6 684.2) rotate(235.8)"><path d="M0 0 C 46.1 -42.2 105.4 -23.7 131.8 0 C 105.4 23.7 46.1 42.2 0 0Z" fill="url(#lf)"/><path d="M10.5 0 L118.6 0" stroke="#bff0c9" stroke-width="2" opacity=".55"/></g><g transform="translate(-72.3 561.6) rotate(314.8)"><path d="M0 0 C 47.5 -43.5 108.7 -24.5 135.9 0 C 108.7 24.5 47.5 43.5 0 0Z" fill="url(#lf)"/><path d="M10.9 0 L122.3 0" stroke="#bff0c9" stroke-width="2" opacity=".55"/></g><g transform="translate(647.7 561.6) rotate(314.8)"><path d="M0 0 C 47.5 -43.5 108.7 -24.5 135.9 0 C 108.7 24.5 47.5 43.5 0 0Z" fill="url(#lf)"/><path d="M10.9 0 L122.3 0" stroke="#bff0c9" stroke-width="2" opacity=".55"/></g><g transform="translate(286.6 283.8) rotate(173.3)"><path d="M0 0 C 37.8 -34.6 86.4 -19.4 108.0 0 C 86.4 19.4 37.8 34.6 0 0Z" fill="url(#lf)"/><path d="M8.6 0 L97.2 0" stroke="#bff0c9" stroke-width="2" opacity=".55"/></g><g transform="translate(48.5 150.3) rotate(58.4)"><path d="M0 0 C 36.3 -33.2 83.0 -18.7 103.8 0 C 83.0 18.7 36.3 33.2 0 0Z" fill="url(#lf)"/><path d="M8.3 0 L93.4 0" stroke="#bff0c9" stroke-width="2" opacity=".55"/></g><g transform="translate(768.5 150.3) rotate(58.4)"><path d="M0 0 C 36.3 -33.2 83.0 -18.7 103.8 0 C 83.0 18.7 36.3 33.2 0 0Z" fill="url(#lf)"/><path d="M8.3 0 L93.4 0" stroke="#bff0c9" stroke-width="2" opacity=".55"/></g><g transform="translate(73.7 408.1) rotate(193.2)"><path d="M0 0 C 51.2 -46.9 117.1 -26.4 146.4 0 C 117.1 26.4 51.2 46.9 0 0Z" fill="url(#bl)"/><path d="M11.7 0 L131.8 0" stroke="#bff0c9" stroke-width="2" opacity=".55"/></g><g transform="translate(793.7 408.1) rotate(193.2)"><path d="M0 0 C 51.2 -46.9 117.1 -26.4 146.4 0 C 117.1 26.4 51.2 46.9 0 0Z" fill="url(#bl)"/><path d="M11.7 0 L131.8 0" stroke="#bff0c9" stroke-width="2" opacity=".55"/></g><g transform="translate(18.4 629.5) rotate(221.1)"><path d="M0 0 C 31.6 -28.9 72.3 -16.3 90.4 0 C 72.3 16.3 31.6 28.9 0 0Z" fill="url(#lf)"/><path d="M7.2 0 L81.4 0" stroke="#bff0c9" stroke-width="2" opacity=".55"/></g><g transform="translate(738.4 629.5) rotate(221.1)"><path d="M0 0 C 31.6 -28.9 72.3 -16.3 90.4 0 C 72.3 16.3 31.6 28.9 0 0Z" fill="url(#lf)"/><path d="M7.2 0 L81.4 0" stroke="#bff0c9" stroke-width="2" opacity=".55"/></g><g transform="translate(-32.1 433.6) rotate(170.7)"><path d="M0 0 C 30.8 -28.2 70.5 -15.9 88.1 0 C 70.5 15.9 30.8 28.2 0 0Z" fill="url(#lf)"/><path d="M7.0 0 L79.3 0" stroke="#bff0c9" stroke-width="2" opacity=".55"/></g><g transform="translate(687.9 433.6) rotate(170.7)"><path d="M0 0 C 30.8 -28.2 70.5 -15.9 88.1 0 C 70.5 15.9 30.8 28.2 0 0Z" fill="url(#lf)"/><path d="M7.0 0 L79.3 0" stroke="#bff0c9" stroke-width="2" opacity=".55"/></g><g transform="translate(-5.0 335.5) rotate(174.2)"><path d="M0 0 C 30.1 -27.5 68.8 -15.5 86.0 0 C 68.8 15.5 30.1 27.5 0 0Z" fill="url(#lf)"/><path d="M6.9 0 L77.4 0" stroke="#bff0c9" stroke-width="2" opacity=".55"/></g><g transform="translate(715.0 335.5) rotate(174.2)"><path d="M0 0 C 30.1 -27.5 68.8 -15.5 86.0 0 C 68.8 15.5 30.1 27.5 0 0Z" fill="url(#lf)"/><path d="M6.9 0 L77.4 0" stroke="#bff0c9" stroke-width="2" opacity=".55"/></g><g transform="translate(539.8 533.1) rotate(172.3)"><path d="M0 0 C 45.0 -41.1 102.8 -23.1 128.4 0 C 102.8 23.1 45.0 41.1 0 0Z" fill="url(#bl)"/><path d="M10.3 0 L115.6 0" stroke="#bff0c9" stroke-width="2" opacity=".55"/></g><g transform="translate(16.6 -35.3) rotate(190.2)"><path d="M0 0 C 31.6 -28.9 72.2 -16.2 90.3 0 C 72.2 16.2 31.6 28.9 0 0Z" fill="url(#bl)"/><path d="M7.2 0 L81.2 0" stroke="#bff0c9" stroke-width="2" opacity=".55"/></g><g transform="translate(16.6 684.7) rotate(190.2)"><path d="M0 0 C 31.6 -28.9 72.2 -16.2 90.3 0 C 72.2 16.2 31.6 28.9 0 0Z" fill="url(#bl)"/><path d="M7.2 0 L81.2 0" stroke="#bff0c9" stroke-width="2" opacity=".55"/></g><g transform="translate(736.6 -35.3) rotate(190.2)"><path d="M0 0 C 31.6 -28.9 72.2 -16.2 90.3 0 C 72.2 16.2 31.6 28.9 0 0Z" fill="url(#bl)"/><path d="M7.2 0 L81.2 0" stroke="#bff0c9" stroke-width="2" opacity=".55"/></g><g transform="translate(736.6 684.7) rotate(190.2)"><path d="M0 0 C 31.6 -28.9 72.2 -16.2 90.3 0 C 72.2 16.2 31.6 28.9 0 0Z" fill="url(#bl)"/><path d="M7.2 0 L81.2 0" stroke="#bff0c9" stroke-width="2" opacity=".55"/></g><g transform="translate(-61.8 545.9) rotate(107.3)"><path d="M0 0 C 43.8 -40.0 100.0 -22.5 125.0 0 C 100.0 22.5 43.8 40.0 0 0Z" fill="url(#lf)"/><path d="M10.0 0 L112.5 0" stroke="#bff0c9" stroke-width="2" opacity=".55"/></g><g transform="translate(658.2 545.9) rotate(107.3)"><path d="M0 0 C 43.8 -40.0 100.0 -22.5 125.0 0 C 100.0 22.5 43.8 40.0 0 0Z" fill="url(#lf)"/><path d="M10.0 0 L112.5 0" stroke="#bff0c9" stroke-width="2" opacity=".55"/></g><g transform="translate(501.3 188.0) rotate(132.0)"><path d="M0 0 C 32.1 -29.3 73.4 -16.5 91.7 0 C 73.4 16.5 32.1 29.3 0 0Z" fill="url(#lf)"/><path d="M7.3 0 L82.5 0" stroke="#bff0c9" stroke-width="2" opacity=".55"/></g><g transform="translate(383.5 560.9) rotate(118.7)"><path d="M0 0 C 33.5 -30.6 76.5 -17.2 95.6 0 C 76.5 17.2 33.5 30.6 0 0Z" fill="url(#lf)"/><path d="M7.6 0 L86.1 0" stroke="#bff0c9" stroke-width="2" opacity=".55"/></g><g transform="translate(580.4 589.2) rotate(266.4)"><path d="M0 0 C 33.6 -30.7 76.7 -17.3 95.9 0 C 76.7 17.3 33.6 30.7 0 0Z" fill="url(#bl)"/><path d="M7.7 0 L86.3 0" stroke="#bff0c9" stroke-width="2" opacity=".55"/></g><g transform="translate(354.8 526.3) rotate(356.3)"><path d="M0 0 C 47.4 -43.3 108.2 -24.4 135.3 0 C 108.2 24.4 47.4 43.3 0 0Z" fill="url(#lf)"/><path d="M10.8 0 L121.8 0" stroke="#bff0c9" stroke-width="2" opacity=".55"/></g><g transform="translate(186.6 498.6) rotate(344.3)"><path d="M0 0 C 39.0 -35.6 89.0 -20.0 111.3 0 C 89.0 20.0 39.0 35.6 0 0Z" fill="url(#bl)"/><path d="M8.9 0 L100.2 0" stroke="#bff0c9" stroke-width="2" opacity=".55"/></g><g transform="translate(-8.6 -32.4) rotate(131.3)"><path d="M0 0 C 33.4 -30.5 76.3 -17.2 95.4 0 C 76.3 17.2 33.4 30.5 0 0Z" fill="url(#lf)"/><path d="M7.6 0 L85.9 0" stroke="#bff0c9" stroke-width="2" opacity=".55"/></g><g transform="translate(-8.6 687.6) rotate(131.3)"><path d="M0 0 C 33.4 -30.5 76.3 -17.2 95.4 0 C 76.3 17.2 33.4 30.5 0 0Z" fill="url(#lf)"/><path d="M7.6 0 L85.9 0" stroke="#bff0c9" stroke-width="2" opacity=".55"/></g><g transform="translate(711.4 -32.4) rotate(131.3)"><path d="M0 0 C 33.4 -30.5 76.3 -17.2 95.4 0 C 76.3 17.2 33.4 30.5 0 0Z" fill="url(#lf)"/><path d="M7.6 0 L85.9 0" stroke="#bff0c9" stroke-width="2" opacity=".55"/></g><g transform="translate(711.4 687.6) rotate(131.3)"><path d="M0 0 C 33.4 -30.5 76.3 -17.2 95.4 0 C 76.3 17.2 33.4 30.5 0 0Z" fill="url(#lf)"/><path d="M7.6 0 L85.9 0" stroke="#bff0c9" stroke-width="2" opacity=".55"/></g><g transform="translate(338.5 243.2) rotate(173.8)"><path d="M0 0 C 52.1 -47.7 119.2 -26.8 149.0 0 C 119.2 26.8 52.1 47.7 0 0Z" fill="url(#bl)"/><path d="M11.9 0 L134.1 0" stroke="#bff0c9" stroke-width="2" opacity=".55"/></g><g transform="translate(-114.9 345.2) rotate(235.1)"><path d="M0 0 C 47.6 -43.5 108.8 -24.5 136.0 0 C 108.8 24.5 47.6 43.5 0 0Z" fill="url(#lf)"/><path d="M10.9 0 L122.4 0" stroke="#bff0c9" stroke-width="2" opacity=".55"/></g><g transform="translate(605.1 345.2) rotate(235.1)"><path d="M0 0 C 47.6 -43.5 108.8 -24.5 136.0 0 C 108.8 24.5 47.6 43.5 0 0Z" fill="url(#lf)"/><path d="M10.9 0 L122.4 0" stroke="#bff0c9" stroke-width="2" opacity=".55"/></g><g transform="translate(-119.1 86.3) rotate(139.9)"><path d="M0 0 C 45.4 -41.5 103.8 -23.4 129.8 0 C 103.8 23.4 45.4 41.5 0 0Z" fill="url(#lf)"/><path d="M10.4 0 L116.8 0" stroke="#bff0c9" stroke-width="2" opacity=".55"/></g><g transform="translate(-119.1 806.3) rotate(139.9)"><path d="M0 0 C 45.4 -41.5 103.8 -23.4 129.8 0 C 103.8 23.4 45.4 41.5 0 0Z" fill="url(#lf)"/><path d="M10.4 0 L116.8 0" stroke="#bff0c9" stroke-width="2" opacity=".55"/></g><g transform="translate(600.9 86.3) rotate(139.9)"><path d="M0 0 C 45.4 -41.5 103.8 -23.4 129.8 0 C 103.8 23.4 45.4 41.5 0 0Z" fill="url(#lf)"/><path d="M10.4 0 L116.8 0" stroke="#bff0c9" stroke-width="2" opacity=".55"/></g><g transform="translate(600.9 806.3) rotate(139.9)"><path d="M0 0 C 45.4 -41.5 103.8 -23.4 129.8 0 C 103.8 23.4 45.4 41.5 0 0Z" fill="url(#lf)"/><path d="M10.4 0 L116.8 0" stroke="#bff0c9" stroke-width="2" opacity=".55"/></g><g transform="translate(344.2 128.5) rotate(284.1)"><path d="M0 0 C 36.1 -33.0 82.6 -18.6 103.3 0 C 82.6 18.6 36.1 33.0 0 0Z" fill="url(#bl)"/><path d="M8.3 0 L92.9 0" stroke="#bff0c9" stroke-width="2" opacity=".55"/></g><g transform="translate(285.0 289.0) rotate(340.8)"><path d="M0 0 C 45.8 -41.8 104.6 -23.5 130.7 0 C 104.6 23.5 45.8 41.8 0 0Z" fill="url(#lf)"/><path d="M10.5 0 L117.7 0" stroke="#bff0c9" stroke-width="2" opacity=".55"/></g><g transform="translate(170.0 190.0) rotate(9.9)"><path d="M0 0 C 35.9 -65.9 113.8 -59.9 119.8 0 C 113.8 59.9 35.9 65.9 0 0Z" fill="url(#pp)" transform="rotate(0.0)"/><path d="M0 0 C 35.9 -65.9 113.8 -59.9 119.8 0 C 113.8 59.9 35.9 65.9 0 0Z" fill="url(#pp)" transform="rotate(51.4)"/><path d="M0 0 C 35.9 -65.9 113.8 -59.9 119.8 0 C 113.8 59.9 35.9 65.9 0 0Z" fill="url(#pp)" transform="rotate(102.9)"/><path d="M0 0 C 35.9 -65.9 113.8 -59.9 119.8 0 C 113.8 59.9 35.9 65.9 0 0Z" fill="url(#pp)" transform="rotate(154.3)"/><path d="M0 0 C 35.9 -65.9 113.8 -59.9 119.8 0 C 113.8 59.9 35.9 65.9 0 0Z" fill="url(#pp)" transform="rotate(205.7)"/><path d="M0 0 C 35.9 -65.9 113.8 -59.9 119.8 0 C 113.8 59.9 35.9 65.9 0 0Z" fill="url(#pp)" transform="rotate(257.1)"/><path d="M0 0 C 35.9 -65.9 113.8 -59.9 119.8 0 C 113.8 59.9 35.9 65.9 0 0Z" fill="url(#pp)" transform="rotate(308.6)"/><path d="M0 0 C 28.0 -51.4 88.8 -46.7 93.5 0 C 88.8 46.7 28.0 51.4 0 0Z" fill="url(#cr)" transform="rotate(17.0)"/><path d="M0 0 C 28.0 -51.4 88.8 -46.7 93.5 0 C 88.8 46.7 28.0 51.4 0 0Z" fill="url(#cr)" transform="rotate(77.0)"/><path d="M0 0 C 28.0 -51.4 88.8 -46.7 93.5 0 C 88.8 46.7 28.0 51.4 0 0Z" fill="url(#cr)" transform="rotate(137.0)"/><path d="M0 0 C 28.0 -51.4 88.8 -46.7 93.5 0 C 88.8 46.7 28.0 51.4 0 0Z" fill="url(#cr)" transform="rotate(197.0)"/><path d="M0 0 C 28.0 -51.4 88.8 -46.7 93.5 0 C 88.8 46.7 28.0 51.4 0 0Z" fill="url(#cr)" transform="rotate(257.0)"/><path d="M0 0 C 28.0 -51.4 88.8 -46.7 93.5 0 C 88.8 46.7 28.0 51.4 0 0Z" fill="url(#cr)" transform="rotate(317.0)"/><path d="M0 0 C 20.1 -36.9 63.7 -33.6 67.1 0 C 63.7 33.6 20.1 36.9 0 0Z" fill="url(#pb)" transform="rotate(34.0)"/><path d="M0 0 C 20.1 -36.9 63.7 -33.6 67.1 0 C 63.7 33.6 20.1 36.9 0 0Z" fill="url(#pb)" transform="rotate(106.0)"/><path d="M0 0 C 20.1 -36.9 63.7 -33.6 67.1 0 C 63.7 33.6 20.1 36.9 0 0Z" fill="url(#pb)" transform="rotate(178.0)"/><path d="M0 0 C 20.1 -36.9 63.7 -33.6 67.1 0 C 63.7 33.6 20.1 36.9 0 0Z" fill="url(#pb)" transform="rotate(250.0)"/><path d="M0 0 C 20.1 -36.9 63.7 -33.6 67.1 0 C 63.7 33.6 20.1 36.9 0 0Z" fill="url(#pb)" transform="rotate(322.0)"/><path d="M0 0 C 12.9 -23.7 41.0 -21.6 43.1 0 C 41.0 21.6 12.9 23.7 0 0Z" fill="url(#cr)" transform="rotate(51.0)"/><path d="M0 0 C 12.9 -23.7 41.0 -21.6 43.1 0 C 41.0 21.6 12.9 23.7 0 0Z" fill="url(#cr)" transform="rotate(141.0)"/><path d="M0 0 C 12.9 -23.7 41.0 -21.6 43.1 0 C 41.0 21.6 12.9 23.7 0 0Z" fill="url(#cr)" transform="rotate(231.0)"/><path d="M0 0 C 12.9 -23.7 41.0 -21.6 43.1 0 C 41.0 21.6 12.9 23.7 0 0Z" fill="url(#cr)" transform="rotate(321.0)"/></g><g transform="translate(520.0 470.0) rotate(167.5)"><path d="M0 0 C 32.9 -60.4 104.3 -54.9 109.8 0 C 104.3 54.9 32.9 60.4 0 0Z" fill="url(#pp)" transform="rotate(0.0)"/><path d="M0 0 C 32.9 -60.4 104.3 -54.9 109.8 0 C 104.3 54.9 32.9 60.4 0 0Z" fill="url(#pp)" transform="rotate(51.4)"/><path d="M0 0 C 32.9 -60.4 104.3 -54.9 109.8 0 C 104.3 54.9 32.9 60.4 0 0Z" fill="url(#pp)" transform="rotate(102.9)"/><path d="M0 0 C 32.9 -60.4 104.3 -54.9 109.8 0 C 104.3 54.9 32.9 60.4 0 0Z" fill="url(#pp)" transform="rotate(154.3)"/><path d="M0 0 C 32.9 -60.4 104.3 -54.9 109.8 0 C 104.3 54.9 32.9 60.4 0 0Z" fill="url(#pp)" transform="rotate(205.7)"/><path d="M0 0 C 32.9 -60.4 104.3 -54.9 109.8 0 C 104.3 54.9 32.9 60.4 0 0Z" fill="url(#pp)" transform="rotate(257.1)"/><path d="M0 0 C 32.9 -60.4 104.3 -54.9 109.8 0 C 104.3 54.9 32.9 60.4 0 0Z" fill="url(#pp)" transform="rotate(308.6)"/><path d="M0 0 C 25.7 -47.1 81.3 -42.8 85.6 0 C 81.3 42.8 25.7 47.1 0 0Z" fill="url(#cr)" transform="rotate(17.0)"/><path d="M0 0 C 25.7 -47.1 81.3 -42.8 85.6 0 C 81.3 42.8 25.7 47.1 0 0Z" fill="url(#cr)" transform="rotate(77.0)"/><path d="M0 0 C 25.7 -47.1 81.3 -42.8 85.6 0 C 81.3 42.8 25.7 47.1 0 0Z" fill="url(#cr)" transform="rotate(137.0)"/><path d="M0 0 C 25.7 -47.1 81.3 -42.8 85.6 0 C 81.3 42.8 25.7 47.1 0 0Z" fill="url(#cr)" transform="rotate(197.0)"/><path d="M0 0 C 25.7 -47.1 81.3 -42.8 85.6 0 C 81.3 42.8 25.7 47.1 0 0Z" fill="url(#cr)" transform="rotate(257.0)"/><path d="M0 0 C 25.7 -47.1 81.3 -42.8 85.6 0 C 81.3 42.8 25.7 47.1 0 0Z" fill="url(#cr)" transform="rotate(317.0)"/><path d="M0 0 C 18.4 -33.8 58.4 -30.7 61.5 0 C 58.4 30.7 18.4 33.8 0 0Z" fill="url(#pb)" transform="rotate(34.0)"/><path d="M0 0 C 18.4 -33.8 58.4 -30.7 61.5 0 C 58.4 30.7 18.4 33.8 0 0Z" fill="url(#pb)" transform="rotate(106.0)"/><path d="M0 0 C 18.4 -33.8 58.4 -30.7 61.5 0 C 58.4 30.7 18.4 33.8 0 0Z" fill="url(#pb)" transform="rotate(178.0)"/><path d="M0 0 C 18.4 -33.8 58.4 -30.7 61.5 0 C 58.4 30.7 18.4 33.8 0 0Z" fill="url(#pb)" transform="rotate(250.0)"/><path d="M0 0 C 18.4 -33.8 58.4 -30.7 61.5 0 C 58.4 30.7 18.4 33.8 0 0Z" fill="url(#pb)" transform="rotate(322.0)"/><path d="M0 0 C 11.9 -21.7 37.5 -19.8 39.5 0 C 37.5 19.8 11.9 21.7 0 0Z" fill="url(#cr)" transform="rotate(51.0)"/><path d="M0 0 C 11.9 -21.7 37.5 -19.8 39.5 0 C 37.5 19.8 11.9 21.7 0 0Z" fill="url(#cr)" transform="rotate(141.0)"/><path d="M0 0 C 11.9 -21.7 37.5 -19.8 39.5 0 C 37.5 19.8 11.9 21.7 0 0Z" fill="url(#cr)" transform="rotate(231.0)"/><path d="M0 0 C 11.9 -21.7 37.5 -19.8 39.5 0 C 37.5 19.8 11.9 21.7 0 0Z" fill="url(#cr)" transform="rotate(321.0)"/></g><g transform="translate(560.0 110.0) rotate(220.2)"><path d="M0 0 C 33.4 -61.3 105.8 -55.7 111.4 0 C 105.8 55.7 33.4 61.3 0 0Z" fill="url(#pp)" transform="rotate(0.0)"/><path d="M0 0 C 33.4 -61.3 105.8 -55.7 111.4 0 C 105.8 55.7 33.4 61.3 0 0Z" fill="url(#pp)" transform="rotate(51.4)"/><path d="M0 0 C 33.4 -61.3 105.8 -55.7 111.4 0 C 105.8 55.7 33.4 61.3 0 0Z" fill="url(#pp)" transform="rotate(102.9)"/><path d="M0 0 C 33.4 -61.3 105.8 -55.7 111.4 0 C 105.8 55.7 33.4 61.3 0 0Z" fill="url(#pp)" transform="rotate(154.3)"/><path d="M0 0 C 33.4 -61.3 105.8 -55.7 111.4 0 C 105.8 55.7 33.4 61.3 0 0Z" fill="url(#pp)" transform="rotate(205.7)"/><path d="M0 0 C 33.4 -61.3 105.8 -55.7 111.4 0 C 105.8 55.7 33.4 61.3 0 0Z" fill="url(#pp)" transform="rotate(257.1)"/><path d="M0 0 C 33.4 -61.3 105.8 -55.7 111.4 0 C 105.8 55.7 33.4 61.3 0 0Z" fill="url(#pp)" transform="rotate(308.6)"/><path d="M0 0 C 26.1 -47.8 82.5 -43.4 86.9 0 C 82.5 43.4 26.1 47.8 0 0Z" fill="url(#cr)" transform="rotate(17.0)"/><path d="M0 0 C 26.1 -47.8 82.5 -43.4 86.9 0 C 82.5 43.4 26.1 47.8 0 0Z" fill="url(#cr)" transform="rotate(77.0)"/><path d="M0 0 C 26.1 -47.8 82.5 -43.4 86.9 0 C 82.5 43.4 26.1 47.8 0 0Z" fill="url(#cr)" transform="rotate(137.0)"/><path d="M0 0 C 26.1 -47.8 82.5 -43.4 86.9 0 C 82.5 43.4 26.1 47.8 0 0Z" fill="url(#cr)" transform="rotate(197.0)"/><path d="M0 0 C 26.1 -47.8 82.5 -43.4 86.9 0 C 82.5 43.4 26.1 47.8 0 0Z" fill="url(#cr)" transform="rotate(257.0)"/><path d="M0 0 C 26.1 -47.8 82.5 -43.4 86.9 0 C 82.5 43.4 26.1 47.8 0 0Z" fill="url(#cr)" transform="rotate(317.0)"/><path d="M0 0 C 18.7 -34.3 59.3 -31.2 62.4 0 C 59.3 31.2 18.7 34.3 0 0Z" fill="url(#pb)" transform="rotate(34.0)"/><path d="M0 0 C 18.7 -34.3 59.3 -31.2 62.4 0 C 59.3 31.2 18.7 34.3 0 0Z" fill="url(#pb)" transform="rotate(106.0)"/><path d="M0 0 C 18.7 -34.3 59.3 -31.2 62.4 0 C 59.3 31.2 18.7 34.3 0 0Z" fill="url(#pb)" transform="rotate(178.0)"/><path d="M0 0 C 18.7 -34.3 59.3 -31.2 62.4 0 C 59.3 31.2 18.7 34.3 0 0Z" fill="url(#pb)" transform="rotate(250.0)"/><path d="M0 0 C 18.7 -34.3 59.3 -31.2 62.4 0 C 59.3 31.2 18.7 34.3 0 0Z" fill="url(#pb)" transform="rotate(322.0)"/><path d="M0 0 C 12.0 -22.1 38.1 -20.1 40.1 0 C 38.1 20.1 12.0 22.1 0 0Z" fill="url(#cr)" transform="rotate(51.0)"/><path d="M0 0 C 12.0 -22.1 38.1 -20.1 40.1 0 C 38.1 20.1 12.0 22.1 0 0Z" fill="url(#cr)" transform="rotate(141.0)"/><path d="M0 0 C 12.0 -22.1 38.1 -20.1 40.1 0 C 38.1 20.1 12.0 22.1 0 0Z" fill="url(#cr)" transform="rotate(231.0)"/><path d="M0 0 C 12.0 -22.1 38.1 -20.1 40.1 0 C 38.1 20.1 12.0 22.1 0 0Z" fill="url(#cr)" transform="rotate(321.0)"/></g><g transform="translate(560.0 830.0) rotate(220.2)"><path d="M0 0 C 33.4 -61.3 105.8 -55.7 111.4 0 C 105.8 55.7 33.4 61.3 0 0Z" fill="url(#pp)" transform="rotate(0.0)"/><path d="M0 0 C 33.4 -61.3 105.8 -55.7 111.4 0 C 105.8 55.7 33.4 61.3 0 0Z" fill="url(#pp)" transform="rotate(51.4)"/><path d="M0 0 C 33.4 -61.3 105.8 -55.7 111.4 0 C 105.8 55.7 33.4 61.3 0 0Z" fill="url(#pp)" transform="rotate(102.9)"/><path d="M0 0 C 33.4 -61.3 105.8 -55.7 111.4 0 C 105.8 55.7 33.4 61.3 0 0Z" fill="url(#pp)" transform="rotate(154.3)"/><path d="M0 0 C 33.4 -61.3 105.8 -55.7 111.4 0 C 105.8 55.7 33.4 61.3 0 0Z" fill="url(#pp)" transform="rotate(205.7)"/><path d="M0 0 C 33.4 -61.3 105.8 -55.7 111.4 0 C 105.8 55.7 33.4 61.3 0 0Z" fill="url(#pp)" transform="rotate(257.1)"/><path d="M0 0 C 33.4 -61.3 105.8 -55.7 111.4 0 C 105.8 55.7 33.4 61.3 0 0Z" fill="url(#pp)" transform="rotate(308.6)"/><path d="M0 0 C 26.1 -47.8 82.5 -43.4 86.9 0 C 82.5 43.4 26.1 47.8 0 0Z" fill="url(#cr)" transform="rotate(17.0)"/><path d="M0 0 C 26.1 -47.8 82.5 -43.4 86.9 0 C 82.5 43.4 26.1 47.8 0 0Z" fill="url(#cr)" transform="rotate(77.0)"/><path d="M0 0 C 26.1 -47.8 82.5 -43.4 86.9 0 C 82.5 43.4 26.1 47.8 0 0Z" fill="url(#cr)" transform="rotate(137.0)"/><path d="M0 0 C 26.1 -47.8 82.5 -43.4 86.9 0 C 82.5 43.4 26.1 47.8 0 0Z" fill="url(#cr)" transform="rotate(197.0)"/><path d="M0 0 C 26.1 -47.8 82.5 -43.4 86.9 0 C 82.5 43.4 26.1 47.8 0 0Z" fill="url(#cr)" transform="rotate(257.0)"/><path d="M0 0 C 26.1 -47.8 82.5 -43.4 86.9 0 C 82.5 43.4 26.1 47.8 0 0Z" fill="url(#cr)" transform="rotate(317.0)"/><path d="M0 0 C 18.7 -34.3 59.3 -31.2 62.4 0 C 59.3 31.2 18.7 34.3 0 0Z" fill="url(#pb)" transform="rotate(34.0)"/><path d="M0 0 C 18.7 -34.3 59.3 -31.2 62.4 0 C 59.3 31.2 18.7 34.3 0 0Z" fill="url(#pb)" transform="rotate(106.0)"/><path d="M0 0 C 18.7 -34.3 59.3 -31.2 62.4 0 C 59.3 31.2 18.7 34.3 0 0Z" fill="url(#pb)" transform="rotate(178.0)"/><path d="M0 0 C 18.7 -34.3 59.3 -31.2 62.4 0 C 59.3 31.2 18.7 34.3 0 0Z" fill="url(#pb)" transform="rotate(250.0)"/><path d="M0 0 C 18.7 -34.3 59.3 -31.2 62.4 0 C 59.3 31.2 18.7 34.3 0 0Z" fill="url(#pb)" transform="rotate(322.0)"/><path d="M0 0 C 12.0 -22.1 38.1 -20.1 40.1 0 C 38.1 20.1 12.0 22.1 0 0Z" fill="url(#cr)" transform="rotate(51.0)"/><path d="M0 0 C 12.0 -22.1 38.1 -20.1 40.1 0 C 38.1 20.1 12.0 22.1 0 0Z" fill="url(#cr)" transform="rotate(141.0)"/><path d="M0 0 C 12.0 -22.1 38.1 -20.1 40.1 0 C 38.1 20.1 12.0 22.1 0 0Z" fill="url(#cr)" transform="rotate(231.0)"/><path d="M0 0 C 12.0 -22.1 38.1 -20.1 40.1 0 C 38.1 20.1 12.0 22.1 0 0Z" fill="url(#cr)" transform="rotate(321.0)"/></g><g transform="translate(150.0 590.0) rotate(170.8)"><path d="M0 0 C 33.0 -60.4 104.4 -54.9 109.9 0 C 104.4 54.9 33.0 60.4 0 0Z" fill="url(#pp)" transform="rotate(0.0)"/><path d="M0 0 C 33.0 -60.4 104.4 -54.9 109.9 0 C 104.4 54.9 33.0 60.4 0 0Z" fill="url(#pp)" transform="rotate(51.4)"/><path d="M0 0 C 33.0 -60.4 104.4 -54.9 109.9 0 C 104.4 54.9 33.0 60.4 0 0Z" fill="url(#pp)" transform="rotate(102.9)"/><path d="M0 0 C 33.0 -60.4 104.4 -54.9 109.9 0 C 104.4 54.9 33.0 60.4 0 0Z" fill="url(#pp)" transform="rotate(154.3)"/><path d="M0 0 C 33.0 -60.4 104.4 -54.9 109.9 0 C 104.4 54.9 33.0 60.4 0 0Z" fill="url(#pp)" transform="rotate(205.7)"/><path d="M0 0 C 33.0 -60.4 104.4 -54.9 109.9 0 C 104.4 54.9 33.0 60.4 0 0Z" fill="url(#pp)" transform="rotate(257.1)"/><path d="M0 0 C 33.0 -60.4 104.4 -54.9 109.9 0 C 104.4 54.9 33.0 60.4 0 0Z" fill="url(#pp)" transform="rotate(308.6)"/><path d="M0 0 C 25.7 -47.1 81.4 -42.9 85.7 0 C 81.4 42.9 25.7 47.1 0 0Z" fill="url(#cr)" transform="rotate(17.0)"/><path d="M0 0 C 25.7 -47.1 81.4 -42.9 85.7 0 C 81.4 42.9 25.7 47.1 0 0Z" fill="url(#cr)" transform="rotate(77.0)"/><path d="M0 0 C 25.7 -47.1 81.4 -42.9 85.7 0 C 81.4 42.9 25.7 47.1 0 0Z" fill="url(#cr)" transform="rotate(137.0)"/><path d="M0 0 C 25.7 -47.1 81.4 -42.9 85.7 0 C 81.4 42.9 25.7 47.1 0 0Z" fill="url(#cr)" transform="rotate(197.0)"/><path d="M0 0 C 25.7 -47.1 81.4 -42.9 85.7 0 C 81.4 42.9 25.7 47.1 0 0Z" fill="url(#cr)" transform="rotate(257.0)"/><path d="M0 0 C 25.7 -47.1 81.4 -42.9 85.7 0 C 81.4 42.9 25.7 47.1 0 0Z" fill="url(#cr)" transform="rotate(317.0)"/><path d="M0 0 C 18.5 -33.8 58.5 -30.8 61.5 0 C 58.5 30.8 18.5 33.8 0 0Z" fill="url(#pb)" transform="rotate(34.0)"/><path d="M0 0 C 18.5 -33.8 58.5 -30.8 61.5 0 C 58.5 30.8 18.5 33.8 0 0Z" fill="url(#pb)" transform="rotate(106.0)"/><path d="M0 0 C 18.5 -33.8 58.5 -30.8 61.5 0 C 58.5 30.8 18.5 33.8 0 0Z" fill="url(#pb)" transform="rotate(178.0)"/><path d="M0 0 C 18.5 -33.8 58.5 -30.8 61.5 0 C 58.5 30.8 18.5 33.8 0 0Z" fill="url(#pb)" transform="rotate(250.0)"/><path d="M0 0 C 18.5 -33.8 58.5 -30.8 61.5 0 C 58.5 30.8 18.5 33.8 0 0Z" fill="url(#pb)" transform="rotate(322.0)"/><path d="M0 0 C 11.9 -21.8 37.6 -19.8 39.6 0 C 37.6 19.8 11.9 21.8 0 0Z" fill="url(#cr)" transform="rotate(51.0)"/><path d="M0 0 C 11.9 -21.8 37.6 -19.8 39.6 0 C 37.6 19.8 11.9 21.8 0 0Z" fill="url(#cr)" transform="rotate(141.0)"/><path d="M0 0 C 11.9 -21.8 37.6 -19.8 39.6 0 C 37.6 19.8 11.9 21.8 0 0Z" fill="url(#cr)" transform="rotate(231.0)"/><path d="M0 0 C 11.9 -21.8 37.6 -19.8 39.6 0 C 37.6 19.8 11.9 21.8 0 0Z" fill="url(#cr)" transform="rotate(321.0)"/></g><g transform="translate(380.0 330.0) rotate(56.1)"><path d="M0 0 C 35.5 -65.1 112.5 -59.2 118.4 0 C 112.5 59.2 35.5 65.1 0 0Z" fill="url(#pp)" transform="rotate(0.0)"/><path d="M0 0 C 35.5 -65.1 112.5 -59.2 118.4 0 C 112.5 59.2 35.5 65.1 0 0Z" fill="url(#pp)" transform="rotate(51.4)"/><path d="M0 0 C 35.5 -65.1 112.5 -59.2 118.4 0 C 112.5 59.2 35.5 65.1 0 0Z" fill="url(#pp)" transform="rotate(102.9)"/><path d="M0 0 C 35.5 -65.1 112.5 -59.2 118.4 0 C 112.5 59.2 35.5 65.1 0 0Z" fill="url(#pp)" transform="rotate(154.3)"/><path d="M0 0 C 35.5 -65.1 112.5 -59.2 118.4 0 C 112.5 59.2 35.5 65.1 0 0Z" fill="url(#pp)" transform="rotate(205.7)"/><path d="M0 0 C 35.5 -65.1 112.5 -59.2 118.4 0 C 112.5 59.2 35.5 65.1 0 0Z" fill="url(#pp)" transform="rotate(257.1)"/><path d="M0 0 C 35.5 -65.1 112.5 -59.2 118.4 0 C 112.5 59.2 35.5 65.1 0 0Z" fill="url(#pp)" transform="rotate(308.6)"/><path d="M0 0 C 27.7 -50.8 87.8 -46.2 92.4 0 C 87.8 46.2 27.7 50.8 0 0Z" fill="url(#cr)" transform="rotate(17.0)"/><path d="M0 0 C 27.7 -50.8 87.8 -46.2 92.4 0 C 87.8 46.2 27.7 50.8 0 0Z" fill="url(#cr)" transform="rotate(77.0)"/><path d="M0 0 C 27.7 -50.8 87.8 -46.2 92.4 0 C 87.8 46.2 27.7 50.8 0 0Z" fill="url(#cr)" transform="rotate(137.0)"/><path d="M0 0 C 27.7 -50.8 87.8 -46.2 92.4 0 C 87.8 46.2 27.7 50.8 0 0Z" fill="url(#cr)" transform="rotate(197.0)"/><path d="M0 0 C 27.7 -50.8 87.8 -46.2 92.4 0 C 87.8 46.2 27.7 50.8 0 0Z" fill="url(#cr)" transform="rotate(257.0)"/><path d="M0 0 C 27.7 -50.8 87.8 -46.2 92.4 0 C 87.8 46.2 27.7 50.8 0 0Z" fill="url(#cr)" transform="rotate(317.0)"/><path d="M0 0 C 19.9 -36.5 63.0 -33.2 66.3 0 C 63.0 33.2 19.9 36.5 0 0Z" fill="url(#pb)" transform="rotate(34.0)"/><path d="M0 0 C 19.9 -36.5 63.0 -33.2 66.3 0 C 63.0 33.2 19.9 36.5 0 0Z" fill="url(#pb)" transform="rotate(106.0)"/><path d="M0 0 C 19.9 -36.5 63.0 -33.2 66.3 0 C 63.0 33.2 19.9 36.5 0 0Z" fill="url(#pb)" transform="rotate(178.0)"/><path d="M0 0 C 19.9 -36.5 63.0 -33.2 66.3 0 C 63.0 33.2 19.9 36.5 0 0Z" fill="url(#pb)" transform="rotate(250.0)"/><path d="M0 0 C 19.9 -36.5 63.0 -33.2 66.3 0 C 63.0 33.2 19.9 36.5 0 0Z" fill="url(#pb)" transform="rotate(322.0)"/><path d="M0 0 C 12.8 -23.5 40.5 -21.3 42.6 0 C 40.5 21.3 12.8 23.5 0 0Z" fill="url(#cr)" transform="rotate(51.0)"/><path d="M0 0 C 12.8 -23.5 40.5 -21.3 42.6 0 C 40.5 21.3 12.8 23.5 0 0Z" fill="url(#cr)" transform="rotate(141.0)"/><path d="M0 0 C 12.8 -23.5 40.5 -21.3 42.6 0 C 40.5 21.3 12.8 23.5 0 0Z" fill="url(#cr)" transform="rotate(231.0)"/><path d="M0 0 C 12.8 -23.5 40.5 -21.3 42.6 0 C 40.5 21.3 12.8 23.5 0 0Z" fill="url(#cr)" transform="rotate(321.0)"/></g><g transform="translate(-30.0 -80.0) rotate(7.7)"><path d="M0 0 C 32.6 -59.8 103.3 -54.4 108.7 0 C 103.3 54.4 32.6 59.8 0 0Z" fill="url(#pp)" transform="rotate(0.0)"/><path d="M0 0 C 32.6 -59.8 103.3 -54.4 108.7 0 C 103.3 54.4 32.6 59.8 0 0Z" fill="url(#pp)" transform="rotate(51.4)"/><path d="M0 0 C 32.6 -59.8 103.3 -54.4 108.7 0 C 103.3 54.4 32.6 59.8 0 0Z" fill="url(#pp)" transform="rotate(102.9)"/><path d="M0 0 C 32.6 -59.8 103.3 -54.4 108.7 0 C 103.3 54.4 32.6 59.8 0 0Z" fill="url(#pp)" transform="rotate(154.3)"/><path d="M0 0 C 32.6 -59.8 103.3 -54.4 108.7 0 C 103.3 54.4 32.6 59.8 0 0Z" fill="url(#pp)" transform="rotate(205.7)"/><path d="M0 0 C 32.6 -59.8 103.3 -54.4 108.7 0 C 103.3 54.4 32.6 59.8 0 0Z" fill="url(#pp)" transform="rotate(257.1)"/><path d="M0 0 C 32.6 -59.8 103.3 -54.4 108.7 0 C 103.3 54.4 32.6 59.8 0 0Z" fill="url(#pp)" transform="rotate(308.6)"/><path d="M0 0 C 25.4 -46.6 80.6 -42.4 84.8 0 C 80.6 42.4 25.4 46.6 0 0Z" fill="url(#cr)" transform="rotate(17.0)"/><path d="M0 0 C 25.4 -46.6 80.6 -42.4 84.8 0 C 80.6 42.4 25.4 46.6 0 0Z" fill="url(#cr)" transform="rotate(77.0)"/><path d="M0 0 C 25.4 -46.6 80.6 -42.4 84.8 0 C 80.6 42.4 25.4 46.6 0 0Z" fill="url(#cr)" transform="rotate(137.0)"/><path d="M0 0 C 25.4 -46.6 80.6 -42.4 84.8 0 C 80.6 42.4 25.4 46.6 0 0Z" fill="url(#cr)" transform="rotate(197.0)"/><path d="M0 0 C 25.4 -46.6 80.6 -42.4 84.8 0 C 80.6 42.4 25.4 46.6 0 0Z" fill="url(#cr)" transform="rotate(257.0)"/><path d="M0 0 C 25.4 -46.6 80.6 -42.4 84.8 0 C 80.6 42.4 25.4 46.6 0 0Z" fill="url(#cr)" transform="rotate(317.0)"/><path d="M0 0 C 18.3 -33.5 57.8 -30.4 60.9 0 C 57.8 30.4 18.3 33.5 0 0Z" fill="url(#pb)" transform="rotate(34.0)"/><path d="M0 0 C 18.3 -33.5 57.8 -30.4 60.9 0 C 57.8 30.4 18.3 33.5 0 0Z" fill="url(#pb)" transform="rotate(106.0)"/><path d="M0 0 C 18.3 -33.5 57.8 -30.4 60.9 0 C 57.8 30.4 18.3 33.5 0 0Z" fill="url(#pb)" transform="rotate(178.0)"/><path d="M0 0 C 18.3 -33.5 57.8 -30.4 60.9 0 C 57.8 30.4 18.3 33.5 0 0Z" fill="url(#pb)" transform="rotate(250.0)"/><path d="M0 0 C 18.3 -33.5 57.8 -30.4 60.9 0 C 57.8 30.4 18.3 33.5 0 0Z" fill="url(#pb)" transform="rotate(322.0)"/><path d="M0 0 C 11.7 -21.5 37.2 -19.6 39.1 0 C 37.2 19.6 11.7 21.5 0 0Z" fill="url(#cr)" transform="rotate(51.0)"/><path d="M0 0 C 11.7 -21.5 37.2 -19.6 39.1 0 C 37.2 19.6 11.7 21.5 0 0Z" fill="url(#cr)" transform="rotate(141.0)"/><path d="M0 0 C 11.7 -21.5 37.2 -19.6 39.1 0 C 37.2 19.6 11.7 21.5 0 0Z" fill="url(#cr)" transform="rotate(231.0)"/><path d="M0 0 C 11.7 -21.5 37.2 -19.6 39.1 0 C 37.2 19.6 11.7 21.5 0 0Z" fill="url(#cr)" transform="rotate(321.0)"/></g><g transform="translate(-30.0 640.0) rotate(7.7)"><path d="M0 0 C 32.6 -59.8 103.3 -54.4 108.7 0 C 103.3 54.4 32.6 59.8 0 0Z" fill="url(#pp)" transform="rotate(0.0)"/><path d="M0 0 C 32.6 -59.8 103.3 -54.4 108.7 0 C 103.3 54.4 32.6 59.8 0 0Z" fill="url(#pp)" transform="rotate(51.4)"/><path d="M0 0 C 32.6 -59.8 103.3 -54.4 108.7 0 C 103.3 54.4 32.6 59.8 0 0Z" fill="url(#pp)" transform="rotate(102.9)"/><path d="M0 0 C 32.6 -59.8 103.3 -54.4 108.7 0 C 103.3 54.4 32.6 59.8 0 0Z" fill="url(#pp)" transform="rotate(154.3)"/><path d="M0 0 C 32.6 -59.8 103.3 -54.4 108.7 0 C 103.3 54.4 32.6 59.8 0 0Z" fill="url(#pp)" transform="rotate(205.7)"/><path d="M0 0 C 32.6 -59.8 103.3 -54.4 108.7 0 C 103.3 54.4 32.6 59.8 0 0Z" fill="url(#pp)" transform="rotate(257.1)"/><path d="M0 0 C 32.6 -59.8 103.3 -54.4 108.7 0 C 103.3 54.4 32.6 59.8 0 0Z" fill="url(#pp)" transform="rotate(308.6)"/><path d="M0 0 C 25.4 -46.6 80.6 -42.4 84.8 0 C 80.6 42.4 25.4 46.6 0 0Z" fill="url(#cr)" transform="rotate(17.0)"/><path d="M0 0 C 25.4 -46.6 80.6 -42.4 84.8 0 C 80.6 42.4 25.4 46.6 0 0Z" fill="url(#cr)" transform="rotate(77.0)"/><path d="M0 0 C 25.4 -46.6 80.6 -42.4 84.8 0 C 80.6 42.4 25.4 46.6 0 0Z" fill="url(#cr)" transform="rotate(137.0)"/><path d="M0 0 C 25.4 -46.6 80.6 -42.4 84.8 0 C 80.6 42.4 25.4 46.6 0 0Z" fill="url(#cr)" transform="rotate(197.0)"/><path d="M0 0 C 25.4 -46.6 80.6 -42.4 84.8 0 C 80.6 42.4 25.4 46.6 0 0Z" fill="url(#cr)" transform="rotate(257.0)"/><path d="M0 0 C 25.4 -46.6 80.6 -42.4 84.8 0 C 80.6 42.4 25.4 46.6 0 0Z" fill="url(#cr)" transform="rotate(317.0)"/><path d="M0 0 C 18.3 -33.5 57.8 -30.4 60.9 0 C 57.8 30.4 18.3 33.5 0 0Z" fill="url(#pb)" transform="rotate(34.0)"/><path d="M0 0 C 18.3 -33.5 57.8 -30.4 60.9 0 C 57.8 30.4 18.3 33.5 0 0Z" fill="url(#pb)" transform="rotate(106.0)"/><path d="M0 0 C 18.3 -33.5 57.8 -30.4 60.9 0 C 57.8 30.4 18.3 33.5 0 0Z" fill="url(#pb)" transform="rotate(178.0)"/><path d="M0 0 C 18.3 -33.5 57.8 -30.4 60.9 0 C 57.8 30.4 18.3 33.5 0 0Z" fill="url(#pb)" transform="rotate(250.0)"/><path d="M0 0 C 18.3 -33.5 57.8 -30.4 60.9 0 C 57.8 30.4 18.3 33.5 0 0Z" fill="url(#pb)" transform="rotate(322.0)"/><path d="M0 0 C 11.7 -21.5 37.2 -19.6 39.1 0 C 37.2 19.6 11.7 21.5 0 0Z" fill="url(#cr)" transform="rotate(51.0)"/><path d="M0 0 C 11.7 -21.5 37.2 -19.6 39.1 0 C 37.2 19.6 11.7 21.5 0 0Z" fill="url(#cr)" transform="rotate(141.0)"/><path d="M0 0 C 11.7 -21.5 37.2 -19.6 39.1 0 C 37.2 19.6 11.7 21.5 0 0Z" fill="url(#cr)" transform="rotate(231.0)"/><path d="M0 0 C 11.7 -21.5 37.2 -19.6 39.1 0 C 37.2 19.6 11.7 21.5 0 0Z" fill="url(#cr)" transform="rotate(321.0)"/></g><g transform="translate(690.0 -80.0) rotate(7.7)"><path d="M0 0 C 32.6 -59.8 103.3 -54.4 108.7 0 C 103.3 54.4 32.6 59.8 0 0Z" fill="url(#pp)" transform="rotate(0.0)"/><path d="M0 0 C 32.6 -59.8 103.3 -54.4 108.7 0 C 103.3 54.4 32.6 59.8 0 0Z" fill="url(#pp)" transform="rotate(51.4)"/><path d="M0 0 C 32.6 -59.8 103.3 -54.4 108.7 0 C 103.3 54.4 32.6 59.8 0 0Z" fill="url(#pp)" transform="rotate(102.9)"/><path d="M0 0 C 32.6 -59.8 103.3 -54.4 108.7 0 C 103.3 54.4 32.6 59.8 0 0Z" fill="url(#pp)" transform="rotate(154.3)"/><path d="M0 0 C 32.6 -59.8 103.3 -54.4 108.7 0 C 103.3 54.4 32.6 59.8 0 0Z" fill="url(#pp)" transform="rotate(205.7)"/><path d="M0 0 C 32.6 -59.8 103.3 -54.4 108.7 0 C 103.3 54.4 32.6 59.8 0 0Z" fill="url(#pp)" transform="rotate(257.1)"/><path d="M0 0 C 32.6 -59.8 103.3 -54.4 108.7 0 C 103.3 54.4 32.6 59.8 0 0Z" fill="url(#pp)" transform="rotate(308.6)"/><path d="M0 0 C 25.4 -46.6 80.6 -42.4 84.8 0 C 80.6 42.4 25.4 46.6 0 0Z" fill="url(#cr)" transform="rotate(17.0)"/><path d="M0 0 C 25.4 -46.6 80.6 -42.4 84.8 0 C 80.6 42.4 25.4 46.6 0 0Z" fill="url(#cr)" transform="rotate(77.0)"/><path d="M0 0 C 25.4 -46.6 80.6 -42.4 84.8 0 C 80.6 42.4 25.4 46.6 0 0Z" fill="url(#cr)" transform="rotate(137.0)"/><path d="M0 0 C 25.4 -46.6 80.6 -42.4 84.8 0 C 80.6 42.4 25.4 46.6 0 0Z" fill="url(#cr)" transform="rotate(197.0)"/><path d="M0 0 C 25.4 -46.6 80.6 -42.4 84.8 0 C 80.6 42.4 25.4 46.6 0 0Z" fill="url(#cr)" transform="rotate(257.0)"/><path d="M0 0 C 25.4 -46.6 80.6 -42.4 84.8 0 C 80.6 42.4 25.4 46.6 0 0Z" fill="url(#cr)" transform="rotate(317.0)"/><path d="M0 0 C 18.3 -33.5 57.8 -30.4 60.9 0 C 57.8 30.4 18.3 33.5 0 0Z" fill="url(#pb)" transform="rotate(34.0)"/><path d="M0 0 C 18.3 -33.5 57.8 -30.4 60.9 0 C 57.8 30.4 18.3 33.5 0 0Z" fill="url(#pb)" transform="rotate(106.0)"/><path d="M0 0 C 18.3 -33.5 57.8 -30.4 60.9 0 C 57.8 30.4 18.3 33.5 0 0Z" fill="url(#pb)" transform="rotate(178.0)"/><path d="M0 0 C 18.3 -33.5 57.8 -30.4 60.9 0 C 57.8 30.4 18.3 33.5 0 0Z" fill="url(#pb)" transform="rotate(250.0)"/><path d="M0 0 C 18.3 -33.5 57.8 -30.4 60.9 0 C 57.8 30.4 18.3 33.5 0 0Z" fill="url(#pb)" transform="rotate(322.0)"/><path d="M0 0 C 11.7 -21.5 37.2 -19.6 39.1 0 C 37.2 19.6 11.7 21.5 0 0Z" fill="url(#cr)" transform="rotate(51.0)"/><path d="M0 0 C 11.7 -21.5 37.2 -19.6 39.1 0 C 37.2 19.6 11.7 21.5 0 0Z" fill="url(#cr)" transform="rotate(141.0)"/><path d="M0 0 C 11.7 -21.5 37.2 -19.6 39.1 0 C 37.2 19.6 11.7 21.5 0 0Z" fill="url(#cr)" transform="rotate(231.0)"/><path d="M0 0 C 11.7 -21.5 37.2 -19.6 39.1 0 C 37.2 19.6 11.7 21.5 0 0Z" fill="url(#cr)" transform="rotate(321.0)"/></g><g transform="translate(690.0 640.0) rotate(7.7)"><path d="M0 0 C 32.6 -59.8 103.3 -54.4 108.7 0 C 103.3 54.4 32.6 59.8 0 0Z" fill="url(#pp)" transform="rotate(0.0)"/><path d="M0 0 C 32.6 -59.8 103.3 -54.4 108.7 0 C 103.3 54.4 32.6 59.8 0 0Z" fill="url(#pp)" transform="rotate(51.4)"/><path d="M0 0 C 32.6 -59.8 103.3 -54.4 108.7 0 C 103.3 54.4 32.6 59.8 0 0Z" fill="url(#pp)" transform="rotate(102.9)"/><path d="M0 0 C 32.6 -59.8 103.3 -54.4 108.7 0 C 103.3 54.4 32.6 59.8 0 0Z" fill="url(#pp)" transform="rotate(154.3)"/><path d="M0 0 C 32.6 -59.8 103.3 -54.4 108.7 0 C 103.3 54.4 32.6 59.8 0 0Z" fill="url(#pp)" transform="rotate(205.7)"/><path d="M0 0 C 32.6 -59.8 103.3 -54.4 108.7 0 C 103.3 54.4 32.6 59.8 0 0Z" fill="url(#pp)" transform="rotate(257.1)"/><path d="M0 0 C 32.6 -59.8 103.3 -54.4 108.7 0 C 103.3 54.4 32.6 59.8 0 0Z" fill="url(#pp)" transform="rotate(308.6)"/><path d="M0 0 C 25.4 -46.6 80.6 -42.4 84.8 0 C 80.6 42.4 25.4 46.6 0 0Z" fill="url(#cr)" transform="rotate(17.0)"/><path d="M0 0 C 25.4 -46.6 80.6 -42.4 84.8 0 C 80.6 42.4 25.4 46.6 0 0Z" fill="url(#cr)" transform="rotate(77.0)"/><path d="M0 0 C 25.4 -46.6 80.6 -42.4 84.8 0 C 80.6 42.4 25.4 46.6 0 0Z" fill="url(#cr)" transform="rotate(137.0)"/><path d="M0 0 C 25.4 -46.6 80.6 -42.4 84.8 0 C 80.6 42.4 25.4 46.6 0 0Z" fill="url(#cr)" transform="rotate(197.0)"/><path d="M0 0 C 25.4 -46.6 80.6 -42.4 84.8 0 C 80.6 42.4 25.4 46.6 0 0Z" fill="url(#cr)" transform="rotate(257.0)"/><path d="M0 0 C 25.4 -46.6 80.6 -42.4 84.8 0 C 80.6 42.4 25.4 46.6 0 0Z" fill="url(#cr)" transform="rotate(317.0)"/><path d="M0 0 C 18.3 -33.5 57.8 -30.4 60.9 0 C 57.8 30.4 18.3 33.5 0 0Z" fill="url(#pb)" transform="rotate(34.0)"/><path d="M0 0 C 18.3 -33.5 57.8 -30.4 60.9 0 C 57.8 30.4 18.3 33.5 0 0Z" fill="url(#pb)" transform="rotate(106.0)"/><path d="M0 0 C 18.3 -33.5 57.8 -30.4 60.9 0 C 57.8 30.4 18.3 33.5 0 0Z" fill="url(#pb)" transform="rotate(178.0)"/><path d="M0 0 C 18.3 -33.5 57.8 -30.4 60.9 0 C 57.8 30.4 18.3 33.5 0 0Z" fill="url(#pb)" transform="rotate(250.0)"/><path d="M0 0 C 18.3 -33.5 57.8 -30.4 60.9 0 C 57.8 30.4 18.3 33.5 0 0Z" fill="url(#pb)" transform="rotate(322.0)"/><path d="M0 0 C 11.7 -21.5 37.2 -19.6 39.1 0 C 37.2 19.6 11.7 21.5 0 0Z" fill="url(#cr)" transform="rotate(51.0)"/><path d="M0 0 C 11.7 -21.5 37.2 -19.6 39.1 0 C 37.2 19.6 11.7 21.5 0 0Z" fill="url(#cr)" transform="rotate(141.0)"/><path d="M0 0 C 11.7 -21.5 37.2 -19.6 39.1 0 C 37.2 19.6 11.7 21.5 0 0Z" fill="url(#cr)" transform="rotate(231.0)"/><path d="M0 0 C 11.7 -21.5 37.2 -19.6 39.1 0 C 37.2 19.6 11.7 21.5 0 0Z" fill="url(#cr)" transform="rotate(321.0)"/></g><g transform="translate(300.0 110.0) rotate(39.0)"><ellipse cx="49.5" cy="0" rx="49.5" ry="18.0" fill="url(#pb)" transform="rotate(0.0)"/><path d="M16.2 0 L81.0 0" stroke="#fff" stroke-opacity=".35" stroke-width="2" transform="rotate(0.0)"/><ellipse cx="49.5" cy="0" rx="49.5" ry="18.0" fill="url(#pb)" transform="rotate(45.0)"/><path d="M16.2 0 L81.0 0" stroke="#fff" stroke-opacity=".35" stroke-width="2" transform="rotate(45.0)"/><ellipse cx="49.5" cy="0" rx="49.5" ry="18.0" fill="url(#pb)" transform="rotate(90.0)"/><path d="M16.2 0 L81.0 0" stroke="#fff" stroke-opacity=".35" stroke-width="2" transform="rotate(90.0)"/><ellipse cx="49.5" cy="0" rx="49.5" ry="18.0" fill="url(#pb)" transform="rotate(135.0)"/><path d="M16.2 0 L81.0 0" stroke="#fff" stroke-opacity=".35" stroke-width="2" transform="rotate(135.0)"/><ellipse cx="49.5" cy="0" rx="49.5" ry="18.0" fill="url(#pb)" transform="rotate(180.0)"/><path d="M16.2 0 L81.0 0" stroke="#fff" stroke-opacity=".35" stroke-width="2" transform="rotate(180.0)"/><ellipse cx="49.5" cy="0" rx="49.5" ry="18.0" fill="url(#pb)" transform="rotate(225.0)"/><path d="M16.2 0 L81.0 0" stroke="#fff" stroke-opacity=".35" stroke-width="2" transform="rotate(225.0)"/><ellipse cx="49.5" cy="0" rx="49.5" ry="18.0" fill="url(#pb)" transform="rotate(270.0)"/><path d="M16.2 0 L81.0 0" stroke="#fff" stroke-opacity=".35" stroke-width="2" transform="rotate(270.0)"/><ellipse cx="49.5" cy="0" rx="49.5" ry="18.0" fill="url(#pb)" transform="rotate(315.0)"/><path d="M16.2 0 L81.0 0" stroke="#fff" stroke-opacity=".35" stroke-width="2" transform="rotate(315.0)"/><circle r="18.0" fill="#ffb2c8"/><circle cx="-8.9" cy="-1.5" r="2.2" fill="#d63a6b"/><circle cx="8.2" cy="-3.6" r="2.2" fill="#d63a6b"/><circle cx="-8.2" cy="3.6" r="2.2" fill="#d63a6b"/><circle cx="6.2" cy="-6.5" r="2.2" fill="#d63a6b"/><circle cx="4.1" cy="-8.0" r="2.2" fill="#d63a6b"/></g><g transform="translate(330.0 620.0) rotate(12.8)"><ellipse cx="41.4" cy="0" rx="41.4" ry="15.1" fill="url(#pp)" transform="rotate(0.0)"/><path d="M13.5 0 L67.7 0" stroke="#fff" stroke-opacity=".35" stroke-width="2" transform="rotate(0.0)"/><ellipse cx="41.4" cy="0" rx="41.4" ry="15.1" fill="url(#pp)" transform="rotate(51.4)"/><path d="M13.5 0 L67.7 0" stroke="#fff" stroke-opacity=".35" stroke-width="2" transform="rotate(51.4)"/><ellipse cx="41.4" cy="0" rx="41.4" ry="15.1" fill="url(#pp)" transform="rotate(102.9)"/><path d="M13.5 0 L67.7 0" stroke="#fff" stroke-opacity=".35" stroke-width="2" transform="rotate(102.9)"/><ellipse cx="41.4" cy="0" rx="41.4" ry="15.1" fill="url(#pp)" transform="rotate(154.3)"/><path d="M13.5 0 L67.7 0" stroke="#fff" stroke-opacity=".35" stroke-width="2" transform="rotate(154.3)"/><ellipse cx="41.4" cy="0" rx="41.4" ry="15.1" fill="url(#pp)" transform="rotate(205.7)"/><path d="M13.5 0 L67.7 0" stroke="#fff" stroke-opacity=".35" stroke-width="2" transform="rotate(205.7)"/><ellipse cx="41.4" cy="0" rx="41.4" ry="15.1" fill="url(#pp)" transform="rotate(257.1)"/><path d="M13.5 0 L67.7 0" stroke="#fff" stroke-opacity=".35" stroke-width="2" transform="rotate(257.1)"/><ellipse cx="41.4" cy="0" rx="41.4" ry="15.1" fill="url(#pp)" transform="rotate(308.6)"/><path d="M13.5 0 L67.7 0" stroke="#fff" stroke-opacity=".35" stroke-width="2" transform="rotate(308.6)"/><circle r="15.1" fill="#ffb2c8"/><circle cx="-7.5" cy="-0.1" r="1.9" fill="#d63a6b"/><circle cx="0.6" cy="-7.5" r="1.9" fill="#d63a6b"/><circle cx="-3.5" cy="6.7" r="1.9" fill="#d63a6b"/><circle cx="-7.2" cy="-2.1" r="1.9" fill="#d63a6b"/><circle cx="3.8" cy="-6.5" r="1.9" fill="#d63a6b"/></g><g transform="translate(-70.0 300.0) rotate(21.2)"><ellipse cx="39.3" cy="0" rx="39.3" ry="14.3" fill="url(#pb)" transform="rotate(0.0)"/><path d="M12.9 0 L64.4 0" stroke="#fff" stroke-opacity=".35" stroke-width="2" transform="rotate(0.0)"/><ellipse cx="39.3" cy="0" rx="39.3" ry="14.3" fill="url(#pb)" transform="rotate(45.0)"/><path d="M12.9 0 L64.4 0" stroke="#fff" stroke-opacity=".35" stroke-width="2" transform="rotate(45.0)"/><ellipse cx="39.3" cy="0" rx="39.3" ry="14.3" fill="url(#pb)" transform="rotate(90.0)"/><path d="M12.9 0 L64.4 0" stroke="#fff" stroke-opacity=".35" stroke-width="2" transform="rotate(90.0)"/><ellipse cx="39.3" cy="0" rx="39.3" ry="14.3" fill="url(#pb)" transform="rotate(135.0)"/><path d="M12.9 0 L64.4 0" stroke="#fff" stroke-opacity=".35" stroke-width="2" transform="rotate(135.0)"/><ellipse cx="39.3" cy="0" rx="39.3" ry="14.3" fill="url(#pb)" transform="rotate(180.0)"/><path d="M12.9 0 L64.4 0" stroke="#fff" stroke-opacity=".35" stroke-width="2" transform="rotate(180.0)"/><ellipse cx="39.3" cy="0" rx="39.3" ry="14.3" fill="url(#pb)" transform="rotate(225.0)"/><path d="M12.9 0 L64.4 0" stroke="#fff" stroke-opacity=".35" stroke-width="2" transform="rotate(225.0)"/><ellipse cx="39.3" cy="0" rx="39.3" ry="14.3" fill="url(#pb)" transform="rotate(270.0)"/><path d="M12.9 0 L64.4 0" stroke="#fff" stroke-opacity=".35" stroke-width="2" transform="rotate(270.0)"/><ellipse cx="39.3" cy="0" rx="39.3" ry="14.3" fill="url(#pb)" transform="rotate(315.0)"/><path d="M12.9 0 L64.4 0" stroke="#fff" stroke-opacity=".35" stroke-width="2" transform="rotate(315.0)"/><circle r="14.3" fill="#ffb2c8"/><circle cx="-6.9" cy="1.9" r="1.8" fill="#d63a6b"/><circle cx="-6.2" cy="-3.6" r="1.8" fill="#d63a6b"/><circle cx="5.9" cy="-4.0" r="1.8" fill="#d63a6b"/><circle cx="-6.3" cy="3.4" r="1.8" fill="#d63a6b"/><circle cx="6.2" cy="-3.5" r="1.8" fill="#d63a6b"/></g><g transform="translate(650.0 300.0) rotate(21.2)"><ellipse cx="39.3" cy="0" rx="39.3" ry="14.3" fill="url(#pb)" transform="rotate(0.0)"/><path d="M12.9 0 L64.4 0" stroke="#fff" stroke-opacity=".35" stroke-width="2" transform="rotate(0.0)"/><ellipse cx="39.3" cy="0" rx="39.3" ry="14.3" fill="url(#pb)" transform="rotate(45.0)"/><path d="M12.9 0 L64.4 0" stroke="#fff" stroke-opacity=".35" stroke-width="2" transform="rotate(45.0)"/><ellipse cx="39.3" cy="0" rx="39.3" ry="14.3" fill="url(#pb)" transform="rotate(90.0)"/><path d="M12.9 0 L64.4 0" stroke="#fff" stroke-opacity=".35" stroke-width="2" transform="rotate(90.0)"/><ellipse cx="39.3" cy="0" rx="39.3" ry="14.3" fill="url(#pb)" transform="rotate(135.0)"/><path d="M12.9 0 L64.4 0" stroke="#fff" stroke-opacity=".35" stroke-width="2" transform="rotate(135.0)"/><ellipse cx="39.3" cy="0" rx="39.3" ry="14.3" fill="url(#pb)" transform="rotate(180.0)"/><path d="M12.9 0 L64.4 0" stroke="#fff" stroke-opacity=".35" stroke-width="2" transform="rotate(180.0)"/><ellipse cx="39.3" cy="0" rx="39.3" ry="14.3" fill="url(#pb)" transform="rotate(225.0)"/><path d="M12.9 0 L64.4 0" stroke="#fff" stroke-opacity=".35" stroke-width="2" transform="rotate(225.0)"/><ellipse cx="39.3" cy="0" rx="39.3" ry="14.3" fill="url(#pb)" transform="rotate(270.0)"/><path d="M12.9 0 L64.4 0" stroke="#fff" stroke-opacity=".35" stroke-width="2" transform="rotate(270.0)"/><ellipse cx="39.3" cy="0" rx="39.3" ry="14.3" fill="url(#pb)" transform="rotate(315.0)"/><path d="M12.9 0 L64.4 0" stroke="#fff" stroke-opacity=".35" stroke-width="2" transform="rotate(315.0)"/><circle r="14.3" fill="#ffb2c8"/><circle cx="-7.2" cy="-0.1" r="1.8" fill="#d63a6b"/><circle cx="-7.0" cy="-1.4" r="1.8" fill="#d63a6b"/><circle cx="-7.1" cy="-1.1" r="1.8" fill="#d63a6b"/><circle cx="7.1" cy="0.8" r="1.8" fill="#d63a6b"/><circle cx="-6.7" cy="2.6" r="1.8" fill="#d63a6b"/></g><g transform="translate(40.0 380.0) rotate(46.6)"><ellipse cx="41.0" cy="0" rx="41.0" ry="14.9" fill="url(#pk)" transform="rotate(0.0)"/><path d="M13.4 0 L67.1 0" stroke="#fff" stroke-opacity=".35" stroke-width="2" transform="rotate(0.0)"/><ellipse cx="41.0" cy="0" rx="41.0" ry="14.9" fill="url(#pk)" transform="rotate(60.0)"/><path d="M13.4 0 L67.1 0" stroke="#fff" stroke-opacity=".35" stroke-width="2" transform="rotate(60.0)"/><ellipse cx="41.0" cy="0" rx="41.0" ry="14.9" fill="url(#pk)" transform="rotate(120.0)"/><path d="M13.4 0 L67.1 0" stroke="#fff" stroke-opacity=".35" stroke-width="2" transform="rotate(120.0)"/><ellipse cx="41.0" cy="0" rx="41.0" ry="14.9" fill="url(#pk)" transform="rotate(180.0)"/><path d="M13.4 0 L67.1 0" stroke="#fff" stroke-opacity=".35" stroke-width="2" transform="rotate(180.0)"/><ellipse cx="41.0" cy="0" rx="41.0" ry="14.9" fill="url(#pk)" transform="rotate(240.0)"/><path d="M13.4 0 L67.1 0" stroke="#fff" stroke-opacity=".35" stroke-width="2" transform="rotate(240.0)"/><ellipse cx="41.0" cy="0" rx="41.0" ry="14.9" fill="url(#pk)" transform="rotate(300.0)"/><path d="M13.4 0 L67.1 0" stroke="#fff" stroke-opacity=".35" stroke-width="2" transform="rotate(300.0)"/><circle r="14.9" fill="#ffb2c8"/><circle cx="4.4" cy="6.0" r="1.9" fill="#d63a6b"/><circle cx="4.7" cy="5.8" r="1.9" fill="#d63a6b"/><circle cx="-5.5" cy="-5.1" r="1.9" fill="#d63a6b"/><circle cx="5.4" cy="5.1" r="1.9" fill="#d63a6b"/><circle cx="6.9" cy="2.8" r="1.9" fill="#d63a6b"/></g><g transform="translate(760.0 380.0) rotate(46.6)"><ellipse cx="41.0" cy="0" rx="41.0" ry="14.9" fill="url(#pk)" transform="rotate(0.0)"/><path d="M13.4 0 L67.1 0" stroke="#fff" stroke-opacity=".35" stroke-width="2" transform="rotate(0.0)"/><ellipse cx="41.0" cy="0" rx="41.0" ry="14.9" fill="url(#pk)" transform="rotate(60.0)"/><path d="M13.4 0 L67.1 0" stroke="#fff" stroke-opacity=".35" stroke-width="2" transform="rotate(60.0)"/><ellipse cx="41.0" cy="0" rx="41.0" ry="14.9" fill="url(#pk)" transform="rotate(120.0)"/><path d="M13.4 0 L67.1 0" stroke="#fff" stroke-opacity=".35" stroke-width="2" transform="rotate(120.0)"/><ellipse cx="41.0" cy="0" rx="41.0" ry="14.9" fill="url(#pk)" transform="rotate(180.0)"/><path d="M13.4 0 L67.1 0" stroke="#fff" stroke-opacity=".35" stroke-width="2" transform="rotate(180.0)"/><ellipse cx="41.0" cy="0" rx="41.0" ry="14.9" fill="url(#pk)" transform="rotate(240.0)"/><path d="M13.4 0 L67.1 0" stroke="#fff" stroke-opacity=".35" stroke-width="2" transform="rotate(240.0)"/><ellipse cx="41.0" cy="0" rx="41.0" ry="14.9" fill="url(#pk)" transform="rotate(300.0)"/><path d="M13.4 0 L67.1 0" stroke="#fff" stroke-opacity=".35" stroke-width="2" transform="rotate(300.0)"/><circle r="14.9" fill="#ffb2c8"/><circle cx="-3.1" cy="-6.8" r="1.9" fill="#d63a6b"/><circle cx="-7.3" cy="-1.4" r="1.9" fill="#d63a6b"/><circle cx="-7.4" cy="0.8" r="1.9" fill="#d63a6b"/><circle cx="1.2" cy="-7.4" r="1.9" fill="#d63a6b"/><circle cx="5.5" cy="-5.0" r="1.9" fill="#d63a6b"/></g><g transform="translate(420.0 40.0) rotate(16.6)"><ellipse cx="39.3" cy="0" rx="39.3" ry="14.3" fill="url(#pk)" transform="rotate(0.0)"/><path d="M12.9 0 L64.3 0" stroke="#fff" stroke-opacity=".35" stroke-width="2" transform="rotate(0.0)"/><ellipse cx="39.3" cy="0" rx="39.3" ry="14.3" fill="url(#pk)" transform="rotate(60.0)"/><path d="M12.9 0 L64.3 0" stroke="#fff" stroke-opacity=".35" stroke-width="2" transform="rotate(60.0)"/><ellipse cx="39.3" cy="0" rx="39.3" ry="14.3" fill="url(#pk)" transform="rotate(120.0)"/><path d="M12.9 0 L64.3 0" stroke="#fff" stroke-opacity=".35" stroke-width="2" transform="rotate(120.0)"/><ellipse cx="39.3" cy="0" rx="39.3" ry="14.3" fill="url(#pk)" transform="rotate(180.0)"/><path d="M12.9 0 L64.3 0" stroke="#fff" stroke-opacity=".35" stroke-width="2" transform="rotate(180.0)"/><ellipse cx="39.3" cy="0" rx="39.3" ry="14.3" fill="url(#pk)" transform="rotate(240.0)"/><path d="M12.9 0 L64.3 0" stroke="#fff" stroke-opacity=".35" stroke-width="2" transform="rotate(240.0)"/><ellipse cx="39.3" cy="0" rx="39.3" ry="14.3" fill="url(#pk)" transform="rotate(300.0)"/><path d="M12.9 0 L64.3 0" stroke="#fff" stroke-opacity=".35" stroke-width="2" transform="rotate(300.0)"/><circle r="14.3" fill="#ffb2c8"/><circle cx="1.0" cy="-7.1" r="1.8" fill="#d63a6b"/><circle cx="-7.1" cy="-0.3" r="1.8" fill="#d63a6b"/><circle cx="-6.6" cy="-2.7" r="1.8" fill="#d63a6b"/><circle cx="0.4" cy="-7.1" r="1.8" fill="#d63a6b"/><circle cx="6.1" cy="-3.7" r="1.8" fill="#d63a6b"/></g><g transform="translate(420.0 760.0) rotate(16.6)"><ellipse cx="39.3" cy="0" rx="39.3" ry="14.3" fill="url(#pk)" transform="rotate(0.0)"/><path d="M12.9 0 L64.3 0" stroke="#fff" stroke-opacity=".35" stroke-width="2" transform="rotate(0.0)"/><ellipse cx="39.3" cy="0" rx="39.3" ry="14.3" fill="url(#pk)" transform="rotate(60.0)"/><path d="M12.9 0 L64.3 0" stroke="#fff" stroke-opacity=".35" stroke-width="2" transform="rotate(60.0)"/><ellipse cx="39.3" cy="0" rx="39.3" ry="14.3" fill="url(#pk)" transform="rotate(120.0)"/><path d="M12.9 0 L64.3 0" stroke="#fff" stroke-opacity=".35" stroke-width="2" transform="rotate(120.0)"/><ellipse cx="39.3" cy="0" rx="39.3" ry="14.3" fill="url(#pk)" transform="rotate(180.0)"/><path d="M12.9 0 L64.3 0" stroke="#fff" stroke-opacity=".35" stroke-width="2" transform="rotate(180.0)"/><ellipse cx="39.3" cy="0" rx="39.3" ry="14.3" fill="url(#pk)" transform="rotate(240.0)"/><path d="M12.9 0 L64.3 0" stroke="#fff" stroke-opacity=".35" stroke-width="2" transform="rotate(240.0)"/><ellipse cx="39.3" cy="0" rx="39.3" ry="14.3" fill="url(#pk)" transform="rotate(300.0)"/><path d="M12.9 0 L64.3 0" stroke="#fff" stroke-opacity=".35" stroke-width="2" transform="rotate(300.0)"/><circle r="14.3" fill="#ffb2c8"/><circle cx="-6.7" cy="2.5" r="1.8" fill="#d63a6b"/><circle cx="-5.4" cy="-4.6" r="1.8" fill="#d63a6b"/><circle cx="-7.1" cy="-0.2" r="1.8" fill="#d63a6b"/><circle cx="-7.1" cy="-0.5" r="1.8" fill="#d63a6b"/><circle cx="-2.5" cy="-6.7" r="1.8" fill="#d63a6b"/></g><g transform="translate(250.0 450.0) rotate(48.4)"><ellipse cx="44.7" cy="0" rx="44.7" ry="16.3" fill="url(#pb)" transform="rotate(0.0)"/><path d="M14.6 0 L73.2 0" stroke="#fff" stroke-opacity=".35" stroke-width="2" transform="rotate(0.0)"/><ellipse cx="44.7" cy="0" rx="44.7" ry="16.3" fill="url(#pb)" transform="rotate(45.0)"/><path d="M14.6 0 L73.2 0" stroke="#fff" stroke-opacity=".35" stroke-width="2" transform="rotate(45.0)"/><ellipse cx="44.7" cy="0" rx="44.7" ry="16.3" fill="url(#pb)" transform="rotate(90.0)"/><path d="M14.6 0 L73.2 0" stroke="#fff" stroke-opacity=".35" stroke-width="2" transform="rotate(90.0)"/><ellipse cx="44.7" cy="0" rx="44.7" ry="16.3" fill="url(#pb)" transform="rotate(135.0)"/><path d="M14.6 0 L73.2 0" stroke="#fff" stroke-opacity=".35" stroke-width="2" transform="rotate(135.0)"/><ellipse cx="44.7" cy="0" rx="44.7" ry="16.3" fill="url(#pb)" transform="rotate(180.0)"/><path d="M14.6 0 L73.2 0" stroke="#fff" stroke-opacity=".35" stroke-width="2" transform="rotate(180.0)"/><ellipse cx="44.7" cy="0" rx="44.7" ry="16.3" fill="url(#pb)" transform="rotate(225.0)"/><path d="M14.6 0 L73.2 0" stroke="#fff" stroke-opacity=".35" stroke-width="2" transform="rotate(225.0)"/><ellipse cx="44.7" cy="0" rx="44.7" ry="16.3" fill="url(#pb)" transform="rotate(270.0)"/><path d="M14.6 0 L73.2 0" stroke="#fff" stroke-opacity=".35" stroke-width="2" transform="rotate(270.0)"/><ellipse cx="44.7" cy="0" rx="44.7" ry="16.3" fill="url(#pb)" transform="rotate(315.0)"/><path d="M14.6 0 L73.2 0" stroke="#fff" stroke-opacity=".35" stroke-width="2" transform="rotate(315.0)"/><circle r="16.3" fill="#ffb2c8"/><circle cx="-8.1" cy="-0.4" r="2.0" fill="#d63a6b"/><circle cx="0.1" cy="8.1" r="2.0" fill="#d63a6b"/><circle cx="-8.0" cy="-1.2" r="2.0" fill="#d63a6b"/><circle cx="5.8" cy="-5.7" r="2.0" fill="#d63a6b"/><circle cx="7.3" cy="-3.6" r="2.0" fill="#d63a6b"/></g><g transform="translate(520.0 -70.0) rotate(50.4)"><ellipse cx="51.2" cy="0" rx="51.2" ry="18.6" fill="url(#pk)" transform="rotate(0.0)"/><path d="M16.8 0 L83.8 0" stroke="#fff" stroke-opacity=".35" stroke-width="2" transform="rotate(0.0)"/><ellipse cx="51.2" cy="0" rx="51.2" ry="18.6" fill="url(#pk)" transform="rotate(60.0)"/><path d="M16.8 0 L83.8 0" stroke="#fff" stroke-opacity=".35" stroke-width="2" transform="rotate(60.0)"/><ellipse cx="51.2" cy="0" rx="51.2" ry="18.6" fill="url(#pk)" transform="rotate(120.0)"/><path d="M16.8 0 L83.8 0" stroke="#fff" stroke-opacity=".35" stroke-width="2" transform="rotate(120.0)"/><ellipse cx="51.2" cy="0" rx="51.2" ry="18.6" fill="url(#pk)" transform="rotate(180.0)"/><path d="M16.8 0 L83.8 0" stroke="#fff" stroke-opacity=".35" stroke-width="2" transform="rotate(180.0)"/><ellipse cx="51.2" cy="0" rx="51.2" ry="18.6" fill="url(#pk)" transform="rotate(240.0)"/><path d="M16.8 0 L83.8 0" stroke="#fff" stroke-opacity=".35" stroke-width="2" transform="rotate(240.0)"/><ellipse cx="51.2" cy="0" rx="51.2" ry="18.6" fill="url(#pk)" transform="rotate(300.0)"/><path d="M16.8 0 L83.8 0" stroke="#fff" stroke-opacity=".35" stroke-width="2" transform="rotate(300.0)"/><circle r="18.6" fill="#ffb2c8"/><circle cx="6.1" cy="7.1" r="2.3" fill="#d63a6b"/><circle cx="6.7" cy="6.4" r="2.3" fill="#d63a6b"/><circle cx="-8.7" cy="3.3" r="2.3" fill="#d63a6b"/><circle cx="8.4" cy="4.1" r="2.3" fill="#d63a6b"/><circle cx="0.5" cy="9.3" r="2.3" fill="#d63a6b"/></g><g transform="translate(520.0 650.0) rotate(50.4)"><ellipse cx="51.2" cy="0" rx="51.2" ry="18.6" fill="url(#pk)" transform="rotate(0.0)"/><path d="M16.8 0 L83.8 0" stroke="#fff" stroke-opacity=".35" stroke-width="2" transform="rotate(0.0)"/><ellipse cx="51.2" cy="0" rx="51.2" ry="18.6" fill="url(#pk)" transform="rotate(60.0)"/><path d="M16.8 0 L83.8 0" stroke="#fff" stroke-opacity=".35" stroke-width="2" transform="rotate(60.0)"/><ellipse cx="51.2" cy="0" rx="51.2" ry="18.6" fill="url(#pk)" transform="rotate(120.0)"/><path d="M16.8 0 L83.8 0" stroke="#fff" stroke-opacity=".35" stroke-width="2" transform="rotate(120.0)"/><ellipse cx="51.2" cy="0" rx="51.2" ry="18.6" fill="url(#pk)" transform="rotate(180.0)"/><path d="M16.8 0 L83.8 0" stroke="#fff" stroke-opacity=".35" stroke-width="2" transform="rotate(180.0)"/><ellipse cx="51.2" cy="0" rx="51.2" ry="18.6" fill="url(#pk)" transform="rotate(240.0)"/><path d="M16.8 0 L83.8 0" stroke="#fff" stroke-opacity=".35" stroke-width="2" transform="rotate(240.0)"/><ellipse cx="51.2" cy="0" rx="51.2" ry="18.6" fill="url(#pk)" transform="rotate(300.0)"/><path d="M16.8 0 L83.8 0" stroke="#fff" stroke-opacity=".35" stroke-width="2" transform="rotate(300.0)"/><circle r="18.6" fill="#ffb2c8"/><circle cx="8.3" cy="4.1" r="2.3" fill="#d63a6b"/><circle cx="-4.5" cy="-8.1" r="2.3" fill="#d63a6b"/><circle cx="2.0" cy="-9.1" r="2.3" fill="#d63a6b"/><circle cx="7.4" cy="-5.6" r="2.3" fill="#d63a6b"/><circle cx="5.3" cy="7.7" r="2.3" fill="#d63a6b"/></g><g transform="translate(-20.0 470.0) rotate(22.0)"><ellipse cx="48.3" cy="0" rx="48.3" ry="17.6" fill="url(#pp)" transform="rotate(0.0)"/><path d="M15.8 0 L79.1 0" stroke="#fff" stroke-opacity=".35" stroke-width="2" transform="rotate(0.0)"/><ellipse cx="48.3" cy="0" rx="48.3" ry="17.6" fill="url(#pp)" transform="rotate(45.0)"/><path d="M15.8 0 L79.1 0" stroke="#fff" stroke-opacity=".35" stroke-width="2" transform="rotate(45.0)"/><ellipse cx="48.3" cy="0" rx="48.3" ry="17.6" fill="url(#pp)" transform="rotate(90.0)"/><path d="M15.8 0 L79.1 0" stroke="#fff" stroke-opacity=".35" stroke-width="2" transform="rotate(90.0)"/><ellipse cx="48.3" cy="0" rx="48.3" ry="17.6" fill="url(#pp)" transform="rotate(135.0)"/><path d="M15.8 0 L79.1 0" stroke="#fff" stroke-opacity=".35" stroke-width="2" transform="rotate(135.0)"/><ellipse cx="48.3" cy="0" rx="48.3" ry="17.6" fill="url(#pp)" transform="rotate(180.0)"/><path d="M15.8 0 L79.1 0" stroke="#fff" stroke-opacity=".35" stroke-width="2" transform="rotate(180.0)"/><ellipse cx="48.3" cy="0" rx="48.3" ry="17.6" fill="url(#pp)" transform="rotate(225.0)"/><path d="M15.8 0 L79.1 0" stroke="#fff" stroke-opacity=".35" stroke-width="2" transform="rotate(225.0)"/><ellipse cx="48.3" cy="0" rx="48.3" ry="17.6" fill="url(#pp)" transform="rotate(270.0)"/><path d="M15.8 0 L79.1 0" stroke="#fff" stroke-opacity=".35" stroke-width="2" transform="rotate(270.0)"/><ellipse cx="48.3" cy="0" rx="48.3" ry="17.6" fill="url(#pp)" transform="rotate(315.0)"/><path d="M15.8 0 L79.1 0" stroke="#fff" stroke-opacity=".35" stroke-width="2" transform="rotate(315.0)"/><circle r="17.6" fill="#ffb2c8"/><circle cx="-0.2" cy="8.8" r="2.2" fill="#d63a6b"/><circle cx="5.7" cy="6.7" r="2.2" fill="#d63a6b"/><circle cx="-8.6" cy="1.8" r="2.2" fill="#d63a6b"/><circle cx="-0.2" cy="-8.8" r="2.2" fill="#d63a6b"/><circle cx="7.3" cy="4.9" r="2.2" fill="#d63a6b"/></g><g transform="translate(700.0 470.0) rotate(22.0)"><ellipse cx="48.3" cy="0" rx="48.3" ry="17.6" fill="url(#pp)" transform="rotate(0.0)"/><path d="M15.8 0 L79.1 0" stroke="#fff" stroke-opacity=".35" stroke-width="2" transform="rotate(0.0)"/><ellipse cx="48.3" cy="0" rx="48.3" ry="17.6" fill="url(#pp)" transform="rotate(45.0)"/><path d="M15.8 0 L79.1 0" stroke="#fff" stroke-opacity=".35" stroke-width="2" transform="rotate(45.0)"/><ellipse cx="48.3" cy="0" rx="48.3" ry="17.6" fill="url(#pp)" transform="rotate(90.0)"/><path d="M15.8 0 L79.1 0" stroke="#fff" stroke-opacity=".35" stroke-width="2" transform="rotate(90.0)"/><ellipse cx="48.3" cy="0" rx="48.3" ry="17.6" fill="url(#pp)" transform="rotate(135.0)"/><path d="M15.8 0 L79.1 0" stroke="#fff" stroke-opacity=".35" stroke-width="2" transform="rotate(135.0)"/><ellipse cx="48.3" cy="0" rx="48.3" ry="17.6" fill="url(#pp)" transform="rotate(180.0)"/><path d="M15.8 0 L79.1 0" stroke="#fff" stroke-opacity=".35" stroke-width="2" transform="rotate(180.0)"/><ellipse cx="48.3" cy="0" rx="48.3" ry="17.6" fill="url(#pp)" transform="rotate(225.0)"/><path d="M15.8 0 L79.1 0" stroke="#fff" stroke-opacity=".35" stroke-width="2" transform="rotate(225.0)"/><ellipse cx="48.3" cy="0" rx="48.3" ry="17.6" fill="url(#pp)" transform="rotate(270.0)"/><path d="M15.8 0 L79.1 0" stroke="#fff" stroke-opacity=".35" stroke-width="2" transform="rotate(270.0)"/><ellipse cx="48.3" cy="0" rx="48.3" ry="17.6" fill="url(#pp)" transform="rotate(315.0)"/><path d="M15.8 0 L79.1 0" stroke="#fff" stroke-opacity=".35" stroke-width="2" transform="rotate(315.0)"/><circle r="17.6" fill="#ffb2c8"/><circle cx="6.6" cy="-5.8" r="2.2" fill="#d63a6b"/><circle cx="4.6" cy="7.5" r="2.2" fill="#d63a6b"/><circle cx="-4.3" cy="-7.6" r="2.2" fill="#d63a6b"/><circle cx="1.4" cy="8.7" r="2.2" fill="#d63a6b"/><circle cx="-2.4" cy="-8.5" r="2.2" fill="#d63a6b"/></g><g transform="translate(-4.3 290.7)"><circle cx="6.1" cy="0" r="5.0" fill="#ef3b2d" transform="rotate(0)"/><circle cx="6.1" cy="0" r="5.0" fill="#ef3b2d" transform="rotate(72)"/><circle cx="6.1" cy="0" r="5.0" fill="#ef3b2d" transform="rotate(144)"/><circle cx="6.1" cy="0" r="5.0" fill="#ef3b2d" transform="rotate(216)"/><circle cx="6.1" cy="0" r="5.0" fill="#ef3b2d" transform="rotate(288)"/><circle r="3.3" fill="#ffd166"/></g><g transform="translate(715.7 290.7)"><circle cx="6.1" cy="0" r="5.0" fill="#ef3b2d" transform="rotate(0)"/><circle cx="6.1" cy="0" r="5.0" fill="#ef3b2d" transform="rotate(72)"/><circle cx="6.1" cy="0" r="5.0" fill="#ef3b2d" transform="rotate(144)"/><circle cx="6.1" cy="0" r="5.0" fill="#ef3b2d" transform="rotate(216)"/><circle cx="6.1" cy="0" r="5.0" fill="#ef3b2d" transform="rotate(288)"/><circle r="3.3" fill="#ffd166"/></g><g transform="translate(256.8 66.4)"><circle cx="6.0" cy="0" r="4.9" fill="#ef3b2d" transform="rotate(0)"/><circle cx="6.0" cy="0" r="4.9" fill="#ef3b2d" transform="rotate(72)"/><circle cx="6.0" cy="0" r="4.9" fill="#ef3b2d" transform="rotate(144)"/><circle cx="6.0" cy="0" r="4.9" fill="#ef3b2d" transform="rotate(216)"/><circle cx="6.0" cy="0" r="4.9" fill="#ef3b2d" transform="rotate(288)"/><circle r="3.2" fill="#ffd166"/></g><g transform="translate(243.3 330.2)"><circle cx="6.9" cy="0" r="5.6" fill="#ef3b2d" transform="rotate(0)"/><circle cx="6.9" cy="0" r="5.6" fill="#ef3b2d" transform="rotate(72)"/><circle cx="6.9" cy="0" r="5.6" fill="#ef3b2d" transform="rotate(144)"/><circle cx="6.9" cy="0" r="5.6" fill="#ef3b2d" transform="rotate(216)"/><circle cx="6.9" cy="0" r="5.6" fill="#ef3b2d" transform="rotate(288)"/><circle r="3.8" fill="#ffd166"/></g><g transform="translate(276.7 372.6)"><circle cx="5.8" cy="0" r="4.7" fill="#ef3b2d" transform="rotate(0)"/><circle cx="5.8" cy="0" r="4.7" fill="#ef3b2d" transform="rotate(72)"/><circle cx="5.8" cy="0" r="4.7" fill="#ef3b2d" transform="rotate(144)"/><circle cx="5.8" cy="0" r="4.7" fill="#ef3b2d" transform="rotate(216)"/><circle cx="5.8" cy="0" r="4.7" fill="#ef3b2d" transform="rotate(288)"/><circle r="3.1" fill="#ffd166"/></g><g transform="translate(691.8 81.3)"><circle cx="7.5" cy="0" r="6.1" fill="#ef3b2d" transform="rotate(0)"/><circle cx="7.5" cy="0" r="6.1" fill="#ef3b2d" transform="rotate(72)"/><circle cx="7.5" cy="0" r="6.1" fill="#ef3b2d" transform="rotate(144)"/><circle cx="7.5" cy="0" r="6.1" fill="#ef3b2d" transform="rotate(216)"/><circle cx="7.5" cy="0" r="6.1" fill="#ef3b2d" transform="rotate(288)"/><circle r="4.1" fill="#ffd166"/></g><g transform="translate(164.6 631.0)"><circle cx="5.2" cy="0" r="4.2" fill="#ef3b2d" transform="rotate(0)"/><circle cx="5.2" cy="0" r="4.2" fill="#ef3b2d" transform="rotate(72)"/><circle cx="5.2" cy="0" r="4.2" fill="#ef3b2d" transform="rotate(144)"/><circle cx="5.2" cy="0" r="4.2" fill="#ef3b2d" transform="rotate(216)"/><circle cx="5.2" cy="0" r="4.2" fill="#ef3b2d" transform="rotate(288)"/><circle r="2.8" fill="#ffd166"/></g><g transform="translate(195.8 652.2)"><circle cx="5.4" cy="0" r="4.5" fill="#ef3b2d" transform="rotate(0)"/><circle cx="5.4" cy="0" r="4.5" fill="#ef3b2d" transform="rotate(72)"/><circle cx="5.4" cy="0" r="4.5" fill="#ef3b2d" transform="rotate(144)"/><circle cx="5.4" cy="0" r="4.5" fill="#ef3b2d" transform="rotate(216)"/><circle cx="5.4" cy="0" r="4.5" fill="#ef3b2d" transform="rotate(288)"/><circle r="3.0" fill="#ffd166"/></g><g transform="translate(544.2 590.2)"><circle cx="7.3" cy="0" r="6.0" fill="#ef3b2d" transform="rotate(0)"/><circle cx="7.3" cy="0" r="6.0" fill="#ef3b2d" transform="rotate(72)"/><circle cx="7.3" cy="0" r="6.0" fill="#ef3b2d" transform="rotate(144)"/><circle cx="7.3" cy="0" r="6.0" fill="#ef3b2d" transform="rotate(216)"/><circle cx="7.3" cy="0" r="6.0" fill="#ef3b2d" transform="rotate(288)"/><circle r="4.0" fill="#ffd166"/></g><g transform="translate(486.7 681.1)"><circle cx="6.1" cy="0" r="5.0" fill="#ef3b2d" transform="rotate(0)"/><circle cx="6.1" cy="0" r="5.0" fill="#ef3b2d" transform="rotate(72)"/><circle cx="6.1" cy="0" r="5.0" fill="#ef3b2d" transform="rotate(144)"/><circle cx="6.1" cy="0" r="5.0" fill="#ef3b2d" transform="rotate(216)"/><circle cx="6.1" cy="0" r="5.0" fill="#ef3b2d" transform="rotate(288)"/><circle r="3.3" fill="#ffd166"/></g><g transform="translate(386.4 370.6)"><circle cx="6.3" cy="0" r="5.2" fill="#ef3b2d" transform="rotate(0)"/><circle cx="6.3" cy="0" r="5.2" fill="#ef3b2d" transform="rotate(72)"/><circle cx="6.3" cy="0" r="5.2" fill="#ef3b2d" transform="rotate(144)"/><circle cx="6.3" cy="0" r="5.2" fill="#ef3b2d" transform="rotate(216)"/><circle cx="6.3" cy="0" r="5.2" fill="#ef3b2d" transform="rotate(288)"/><circle r="3.4" fill="#ffd166"/></g><g transform="translate(235.5 200.9)"><circle cx="7.1" cy="0" r="5.8" fill="#ef3b2d" transform="rotate(0)"/><circle cx="7.1" cy="0" r="5.8" fill="#ef3b2d" transform="rotate(72)"/><circle cx="7.1" cy="0" r="5.8" fill="#ef3b2d" transform="rotate(144)"/><circle cx="7.1" cy="0" r="5.8" fill="#ef3b2d" transform="rotate(216)"/><circle cx="7.1" cy="0" r="5.8" fill="#ef3b2d" transform="rotate(288)"/><circle r="3.9" fill="#ffd166"/></g><g transform="translate(132.0 644.6)"><circle cx="5.7" cy="0" r="4.7" fill="#ef3b2d" transform="rotate(0)"/><circle cx="5.7" cy="0" r="4.7" fill="#ef3b2d" transform="rotate(72)"/><circle cx="5.7" cy="0" r="4.7" fill="#ef3b2d" transform="rotate(144)"/><circle cx="5.7" cy="0" r="4.7" fill="#ef3b2d" transform="rotate(216)"/><circle cx="5.7" cy="0" r="4.7" fill="#ef3b2d" transform="rotate(288)"/><circle r="3.1" fill="#ffd166"/></g><g stroke="#fff" stroke-linecap="round" opacity=".85"><path d="M-10.0 50.5 L34.3 77.1" stroke-width="2"/><path d="M-1.2 85.9 L25.4 41.6" stroke-width="2"/></g><circle cx="12.1" cy="63.8" r="5" fill="#fff"/><g stroke="#fff" stroke-linecap="round" opacity=".85"><path d="M710.0 50.5 L754.3 77.1" stroke-width="2"/><path d="M718.8 85.9 L745.4 41.6" stroke-width="2"/></g><circle cx="732.1" cy="63.8" r="5" fill="#fff"/><g stroke="#fff" stroke-linecap="round" opacity=".85"><path d="M415.7 146.8 L460.1 173.5" stroke-width="2"/><path d="M424.5 182.4 L451.2 137.9" stroke-width="2"/></g><circle cx="437.9" cy="160.1" r="5" fill="#fff"/><g stroke="#fff" stroke-linecap="round" opacity=".85"><path d="M53.7 -12.0 L121.5 28.7" stroke-width="2"/><path d="M67.3 42.2 L108.0 -25.6" stroke-width="2"/></g><circle cx="87.6" cy="8.3" r="5" fill="#fff"/><g stroke="#fff" stroke-linecap="round" opacity=".85"><path d="M53.7 708.0 L121.5 748.7" stroke-width="2"/><path d="M67.3 762.2 L108.0 694.4" stroke-width="2"/></g><circle cx="87.6" cy="728.3" r="5" fill="#fff"/><g stroke="#fff" stroke-linecap="round" opacity=".85"><path d="M272.8 642.3 L328.7 675.9" stroke-width="2"/><path d="M284.0 687.1 L317.6 631.2" stroke-width="2"/></g><circle cx="300.8" cy="659.1" r="5" fill="#fff"/><g stroke="#fff" stroke-linecap="round" opacity=".85"><path d="M-1.9 491.1 L64.1 530.7" stroke-width="2"/><path d="M11.3 543.9 L50.9 477.9" stroke-width="2"/></g><circle cx="31.1" cy="510.9" r="5" fill="#fff"/><g stroke="#fff" stroke-linecap="round" opacity=".85"><path d="M718.1 491.1 L784.1 530.7" stroke-width="2"/><path d="M731.3 543.9 L770.9 477.9" stroke-width="2"/></g><circle cx="751.1" cy="510.9" r="5" fill="#fff"/><g stroke="#fff" stroke-linecap="round" opacity=".85"><path d="M676.9 176.0 L718.7 201.1" stroke-width="2"/><path d="M685.3 209.5 L710.4 167.7" stroke-width="2"/></g><circle cx="697.8" cy="188.6" r="5" fill="#fff"/><g stroke="#fff" stroke-linecap="round" opacity=".85"><path d="M644.7 436.7 L697.7 468.5" stroke-width="2"/><path d="M655.3 479.1 L687.1 426.1" stroke-width="2"/></g><circle cx="671.2" cy="452.6" r="5" fill="#fff"/><rect width="720" height="720" filter="url(#grain)"/></svg>